<svg preserveAspectRatio="none" width="100%" height="100%" overflow="visible" style="display: block;" viewBox="0 0 48 48" fill="none" xmlns="http://www.w3.org/2000/svg">
<g id="icon">
<path id="Union" d="M31.0713 16.9293C31.4618 17.3198 31.4618 17.953 31.0713 18.3435L26.8287 22.5861C26.0476 23.3672 26.0476 24.6335 26.8287 25.4145L31.0713 29.6572C31.4618 30.0477 31.4618 30.6809 31.0713 31.0714C30.6808 31.4619 30.0476 31.4619 29.6571 31.0714L25.4144 26.8288C24.6334 26.0477 23.3671 26.0477 22.586 26.8288L18.3434 31.0714C17.9529 31.4619 17.3197 31.4619 16.9292 31.0714C16.5386 30.6809 16.5386 30.0477 16.9292 29.6572L21.1718 25.4145C21.9529 24.6335 21.9529 23.3672 21.1718 22.5861L16.9292 18.3435C16.5386 17.953 16.5386 17.3198 16.9292 16.9293C17.3197 16.5387 17.9529 16.5387 18.3434 16.9293L22.586 21.1719C23.3671 21.953 24.6334 21.953 25.4144 21.1719L29.6571 16.9293C30.0476 16.5387 30.6808 16.5387 31.0713 16.9293Z" fill="var(--fill-0, #A5A7AD)"/>
</g>
</svg>
