<svg preserveAspectRatio="none" width="100%" height="100%" overflow="visible" style="display: block;" viewBox="0 0 48 48" fill="none" xmlns="http://www.w3.org/2000/svg">
<g id="icon">
<path id="Union" d="M24 14C24.5523 14 25 14.4477 25 15V21C25 22.1046 25.8954 23 27 23H33C33.5523 23 34 23.4477 34 24C34 24.5523 33.5523 25 33 25H27C25.8954 25 25 25.8954 25 27V33C25 33.5523 24.5523 34 24 34C23.4477 34 23 33.5523 23 33V27C23 25.8954 22.1046 25 21 25H15C14.4477 25 14 24.5523 14 24C14 23.4477 14.4477 23 15 23H21C22.1046 23 23 22.1046 23 21V15C23 14.4477 23.4477 14 24 14Z" fill="var(--fill-0, #A5A7AD)"/>
</g>
</svg>
