<svg preserveAspectRatio="none" width="100%" height="100%" overflow="visible" style="display: block;" viewBox="0 0 0.28369 1.22932" fill="none" xmlns="http://www.w3.org/2000/svg">
<path id="&#226;&#134;&#179; Icon Color" d="M0 0.141845C0 0.0635062 0.0635062 0 0.141845 0C0.220184 0 0.28369 0.0635062 0.28369 0.141845C0.28369 0.220184 0.220184 0.28369 0.141845 0.28369C0.0635062 0.28369 0 0.220184 0 0.141845ZM0 0.614662C0 0.536323 0.0635062 0.472817 0.141845 0.472817C0.220184 0.472817 0.28369 0.536323 0.28369 0.614662C0.28369 0.693001 0.220184 0.756507 0.141845 0.756507C0.0635062 0.756507 0 0.693001 0 0.614662ZM0 1.08748C0 1.00914 0.0635062 0.945634 0.141845 0.945634C0.220184 0.945634 0.28369 1.00914 0.28369 1.08748C0.28369 1.16582 0.220184 1.22932 0.141845 1.22932C0.0635062 1.22932 0 1.16582 0 1.08748Z" fill="var(--fill-0, #83848A)"/>
</svg>
