<svg preserveAspectRatio="none" width="100%" height="100%" overflow="visible" style="display: block;" viewBox="0 0 0.853815 0.997967" fill="none" xmlns="http://www.w3.org/2000/svg">
<path id="Vector" d="M0.853815 0.720754C0.853815 0.881537 0.704121 0.997967 0.493439 0.997967H0V0H0.476805C0.681942 0 0.826094 0.110885 0.826094 0.266125C0.826094 0.371466 0.770652 0.437997 0.687488 0.476807C0.776196 0.510072 0.853815 0.59878 0.853815 0.720754ZM0.216226 0.182961V0.399187H0.471262C0.548882 0.399187 0.598779 0.354833 0.598779 0.293846C0.598779 0.232859 0.543337 0.182961 0.471262 0.182961H0.216226ZM0.493439 0.815006C0.576603 0.815006 0.63759 0.765108 0.63759 0.693032C0.63759 0.620957 0.582147 0.571059 0.493439 0.571059H0.216226V0.815006H0.493439Z" fill="var(--fill-0, white)"/>
</svg>
