<svg preserveAspectRatio="none" width="100%" height="100%" overflow="visible" style="display: block;" viewBox="0 0 2.08039 2.08039" fill="none" xmlns="http://www.w3.org/2000/svg">
<g id="&#226;&#134;&#179; Background">
<path d="M0 0.998589C0 0.52785 1.03334e-08 0.29248 0.14624 0.14624C0.29248 0 0.52785 0 0.998589 0H1.0818C1.55254 0 1.78791 0 1.93415 0.14624C2.08039 0.29248 2.08039 0.52785 2.08039 0.998589V1.0818C2.08039 1.55254 2.08039 1.78791 1.93415 1.93415C1.78791 2.08039 1.55254 2.08039 1.0818 2.08039H0.998589C0.52785 2.08039 0.29248 2.08039 0.14624 1.93415C1.03334e-08 1.78791 0 1.55254 0 1.0818V0.998589Z" fill="#0077FF"/>
<path d="M0 0.998589C0 0.52785 1.03334e-08 0.29248 0.14624 0.14624C0.29248 0 0.52785 0 0.998589 0H1.0818C1.55254 0 1.78791 0 1.93415 0.14624C2.08039 0.29248 2.08039 0.52785 2.08039 0.998589V1.0818C2.08039 1.55254 2.08039 1.78791 1.93415 1.93415C1.78791 2.08039 1.55254 2.08039 1.0818 2.08039H0.998589C0.52785 2.08039 0.29248 2.08039 0.14624 1.93415C1.03334e-08 1.78791 0 1.55254 0 1.0818V0.998589Z" fill="#2787F5"/>
</g>
</svg>
