<svg preserveAspectRatio="none" width="100%" height="100%" overflow="visible" style="display: block;" viewBox="0 0 6.48953 6.48954" fill="none" xmlns="http://www.w3.org/2000/svg">
<path id="&#226;&#134;&#179; Icon Color" fill-rule="evenodd" clip-rule="evenodd" d="M2.68852 0C1.20369 0 0 1.20369 0 2.68852C0 4.17335 1.20369 5.37705 2.68852 5.37705C3.31065 5.37705 3.88342 5.16574 4.33898 4.81098L5.91979 6.39179C6.05013 6.52213 6.26144 6.52213 6.39178 6.39179C6.52212 6.26145 6.52212 6.05013 6.39178 5.9198L4.81097 4.33899C5.16574 3.88343 5.37705 3.31065 5.37705 2.68852C5.37705 1.20369 4.17335 0 2.68852 0ZM2.68852 0.667496C1.57234 0.667496 0.667496 1.57234 0.667496 2.68852C0.667496 3.80471 1.57234 4.70955 2.68852 4.70955C3.80471 4.70955 4.70955 3.80471 4.70955 2.68852C4.70955 1.57234 3.80471 0.667496 2.68852 0.667496Z" fill="var(--fill-0, #A5A7AD)"/>
</svg>
