<svg preserveAspectRatio="none" width="100%" height="100%" overflow="visible" style="display: block;" viewBox="0 0 20.9932 5.86328" fill="none" xmlns="http://www.w3.org/2000/svg">
<g id="promo">
<path d="M19.1963 0.000491523C19.1963 0.000760438 19.1965 0.000979583 19.1968 0.000983171C20.6402 0.0202423 20.9931 0.435268 20.9932 2.02246V3.8252C20.9932 5.43175 20.6513 5.84436 19.1973 5.86132C19.1967 5.86132 19.1963 5.86176 19.1963 5.8623C19.1963 5.86284 19.1958 5.86328 19.1953 5.86328H1.97307C0.883376 5.86328 0 4.97991 0 3.89021V1.97307C0 0.883375 0.883375 0 1.97307 0H19.1958C19.1961 0 19.1963 0.000220062 19.1963 0.000491523Z" fill="var(--fill-0, white)"/>
<path d="M19.1963 0.000491523C19.1963 0.000760438 19.1965 0.000979583 19.1968 0.000983171C20.6402 0.0202423 20.9931 0.435268 20.9932 2.02246V3.8252C20.9932 5.43175 20.6513 5.84436 19.1973 5.86132C19.1967 5.86132 19.1963 5.86176 19.1963 5.8623C19.1963 5.86284 19.1958 5.86328 19.1953 5.86328H1.97307C0.883376 5.86328 0 4.97991 0 3.89021V1.97307C0 0.883375 0.883375 0 1.97307 0H19.1958C19.1961 0 19.1963 0.000220062 19.1963 0.000491523Z" fill="var(--fill-1, #2E7AF6)"/>
</g>
</svg>
