<svg preserveAspectRatio="none" width="100%" height="100%" overflow="visible" style="display: block;" viewBox="0 0 4.81413 1.41643" fill="none" xmlns="http://www.w3.org/2000/svg">
<g id="&#208;&#187;&#208;&#181;&#208;&#180;&#208;&#184;">
<path d="M0.241931 0.694776L0.281219 0.0206778H1.06905V1.09593H0.83125V0.237795H0.502472L0.477659 0.69064C0.463184 0.955317 0.332914 1.10627 0.117864 1.10627C0.0930504 1.10627 0.057898 1.1042 0.0227456 1.10006L0 0.872606C0.0248134 0.874673 0.0703047 0.874673 0.0889148 0.874673C0.194372 0.874673 0.23366 0.825047 0.241931 0.694776Z" fill="var(--fill-0, #2C2D2E)"/>
<path d="M2.39225 0.545895C2.39225 0.574844 2.39018 0.599658 2.38811 0.622404H1.52378C1.54653 0.787826 1.66646 0.899487 1.84842 0.899487C1.97456 0.899487 2.07381 0.845724 2.12551 0.769216L2.34883 0.806436C2.26818 1.01115 2.05727 1.1166 1.83395 1.1166C1.50724 1.1166 1.27565 0.882945 1.27565 0.558302C1.27565 0.23366 1.50724 0 1.83395 0C2.16066 0 2.39225 0.235728 2.39225 0.545895ZM1.83395 0.206779C1.6892 0.206779 1.57754 0.297761 1.53825 0.436303H2.13378C2.09449 0.301897 1.98283 0.206779 1.83395 0.206779Z" fill="var(--fill-0, #2C2D2E)"/>
<path d="M2.63901 1.41643H2.40122V0.878809H2.4281C2.54596 0.878809 2.60386 0.765081 2.62247 0.570709L2.67623 0.0206778H3.46406V0.878809H3.65016V1.41643H3.41236V1.09593H2.63901V1.41643ZM2.76308 0.878809H3.22626V0.237795H2.89542L2.86233 0.566573C2.84579 0.727861 2.82098 0.822979 2.76308 0.878809Z" fill="var(--fill-0, #2C2D2E)"/>
<path d="M4.15244 1.09593H3.81539V0.0206778H4.04284V0.818843H4.07593L4.47708 0.0206778H4.81413V1.09593H4.58667V0.297761H4.55359L4.15244 1.09593Z" fill="var(--fill-0, #2C2D2E)"/>
</g>
</svg>
