<svg preserveAspectRatio="none" width="100%" height="100%" overflow="visible" style="display: block;" viewBox="0 0 1.32389 1.08748" fill="none" xmlns="http://www.w3.org/2000/svg">
<path id="&#226;&#134;&#179; Icon Color" fill-rule="evenodd" clip-rule="evenodd" d="M0.425535 0.330972C0.373309 0.330972 0.330972 0.288634 0.330972 0.236408C0.330972 0.184182 0.373309 0.141845 0.425535 0.141845C0.477761 0.141845 0.520098 0.184182 0.520098 0.236408C0.520098 0.288634 0.477761 0.330972 0.425535 0.330972ZM0.19995 0.165486C0.230074 0.0695725 0.31968 0 0.425535 0C0.53139 0 0.620996 0.0695725 0.651121 0.165486H1.25296C1.29213 0.165486 1.32389 0.197239 1.32389 0.236408C1.32389 0.275578 1.29213 0.307331 1.25296 0.307331H0.651121C0.620996 0.403244 0.53139 0.472817 0.425535 0.472817C0.31968 0.472817 0.230074 0.403244 0.19995 0.307331H0.0709225C0.0317531 0.307331 0 0.275578 0 0.236408C0 0.197239 0.0317531 0.165486 0.0709225 0.165486H0.19995ZM0.898352 0.945634C0.950578 0.945634 0.992915 0.903296 0.992915 0.85107C0.992915 0.798844 0.950578 0.756507 0.898352 0.756507C0.846126 0.756507 0.803789 0.798844 0.803789 0.85107C0.803789 0.903296 0.846126 0.945634 0.898352 0.945634ZM1.12394 0.780148C1.09381 0.684234 1.00421 0.614662 0.898352 0.614662C0.792497 0.614662 0.702891 0.684234 0.672766 0.780148H0.0709225C0.0317531 0.780148 0 0.811901 0 0.85107C0 0.89024 0.0317531 0.921993 0.0709225 0.921993H0.672766C0.702891 1.01791 0.792497 1.08748 0.898352 1.08748C1.00421 1.08748 1.09381 1.01791 1.12394 0.921993H1.25296C1.29213 0.921993 1.32389 0.89024 1.32389 0.85107C1.32389 0.811901 1.29213 0.780148 1.25296 0.780148H1.12394Z" fill="var(--fill-0, #A5A7AD)"/>
</svg>
