<svg preserveAspectRatio="none" width="100%" height="100%" overflow="visible" style="display: block;" viewBox="0 0 1.98583 1.70214" fill="none" xmlns="http://www.w3.org/2000/svg">
<path id="&#226;&#134;&#179; Icon Color" d="M1.13476 0C1.18699 0 1.22932 0.0423375 1.22932 0.0945634V1.60758C1.22932 1.6598 1.18699 1.70214 1.13476 1.70214C1.0741 1.70214 1.01581 1.67858 0.972191 1.63643L0.452971 1.13476H0.189127C0.0846749 1.13476 0 1.05009 0 0.945634V0.756507C0 0.652055 0.0846749 0.56738 0.189127 0.56738H0.450594L0.972059 0.06557C1.01578 0.0235006 1.07409 0 1.13476 0ZM1.6439 0.316139C1.67713 0.282903 1.73102 0.282903 1.76425 0.316139C2.05969 0.611574 2.05969 1.09057 1.76425 1.386C1.73102 1.41924 1.67713 1.41924 1.6439 1.386C1.61066 1.35277 1.61066 1.29888 1.6439 1.26564C1.87286 1.03668 1.87286 0.66546 1.6439 0.436499C1.61066 0.403262 1.61066 0.349376 1.6439 0.316139ZM1.40318 0.556858C1.43641 0.523621 1.4903 0.523621 1.52354 0.556858C1.68602 0.719347 1.68602 0.982793 1.52354 1.14528C1.4903 1.17852 1.43641 1.17852 1.40318 1.14528C1.36994 1.11205 1.36994 1.05816 1.40318 1.02492C1.49919 0.928906 1.49919 0.773233 1.40318 0.677217C1.36994 0.643981 1.36994 0.590094 1.40318 0.556858Z" fill="var(--fill-0, white)"/>
</svg>
