<svg preserveAspectRatio="none" width="100%" height="100%" overflow="visible" style="display: block;" viewBox="0 0 9.26721 1.89127" fill="none" xmlns="http://www.w3.org/2000/svg">
<g id="logo-huawei" clip-path="url(#clip0_306_18414)">
<path id="Vector" d="M3.8351 0.996063H3.37218V0.617809H3.16114V1.55083H3.37218V1.17258H3.8351V1.55083H4.03933V0.617809H3.8351V0.996063Z" fill="var(--fill-0, white)"/>
<path id="Vector_2" d="M4.9924 1.15368C4.9924 1.30498 4.91071 1.38694 4.76094 1.38694C4.61117 1.38694 4.52948 1.30498 4.52948 1.14738V0.61782H4.32525V1.15368C4.32525 1.41846 4.48182 1.56976 4.76094 1.56976C5.04005 1.56976 5.19663 1.41846 5.19663 1.14738V0.61782H4.9924V1.15368Z" fill="var(--fill-0, white)"/>
<path id="Vector_3" d="M7.36154 1.26085L7.13008 0.61782H6.96669L6.7352 1.26085L6.51055 0.61782H6.2927L6.6467 1.55085H6.81692L7.04838 0.939336L7.27304 1.55085H7.45004L7.79723 0.61782H7.58619L7.36154 1.26085Z" fill="var(--fill-0, white)"/>
<path id="Vector_4" d="M8.16478 1.14737H8.53921V0.977156H8.16478V0.788029H8.7094V0.617814H7.96055V1.55084H8.72982V1.38063H8.16478V1.14737Z" fill="var(--fill-0, white)"/>
<path id="Vector_5" d="M9.17913 0.61782H8.9749V1.55085H9.17913V0.61782Z" fill="var(--fill-0, white)"/>
<path id="Vector_6" d="M6.06123 1.3554L6.14973 1.55084H6.36758L5.92508 0.617811L5.91827 0.611506H5.74127L5.29877 1.55084H5.50981L5.59831 1.36801L5.60511 1.3554H6.06123ZM5.82977 0.851066L5.97273 1.16628L5.97954 1.18519H5.66638L5.67319 1.16628L5.82977 0.851066Z" fill="var(--fill-0, white)"/>
<path id="Vector_7" d="M1.14602 1.45628C1.14602 1.45628 1.15283 1.44997 1.14602 1.44997C0.832869 0.819549 0.403982 0.334123 0.403982 0.334123C0.403982 0.334123 0.17252 0.535859 0.186136 0.743899C0.192943 0.901504 0.322289 0.989763 0.322289 0.989763C0.52652 1.17259 1.01668 1.40584 1.13241 1.45628C1.13241 1.45628 1.13921 1.45628 1.14602 1.45628Z" fill="var(--fill-0, #CE0E2D)"/>
<path id="Vector_8" d="M1.06434 1.61388C1.06434 1.60758 1.05072 1.60758 1.05072 1.60758L0.233798 1.63279C0.322298 1.77779 0.472067 1.89127 0.628644 1.85974C0.737569 1.83453 0.982646 1.67692 1.05753 1.62649C1.07115 1.61388 1.06434 1.61388 1.06434 1.61388Z" fill="var(--fill-0, #CE0E2D)"/>
<path id="Vector_9" d="M1.07799 1.54453C1.08479 1.53823 1.07799 1.53192 1.07799 1.53192C0.717178 1.30497 0.0227949 0.964544 0.0227949 0.964544C-0.0384743 1.14737 0.043218 1.29236 0.043218 1.29236C0.131718 1.46888 0.30191 1.51932 0.30191 1.51932C0.376795 1.55084 0.458487 1.55084 0.458487 1.55084C0.472102 1.55084 0.941832 1.55084 1.07118 1.55084C1.07799 1.55084 1.07799 1.54453 1.07799 1.54453Z" fill="var(--fill-0, #CE0E2D)"/>
<path id="Vector_10" d="M1.13239 0.00630559C1.09835 0.00630559 1.00305 0.0315226 1.00305 0.0315226C0.785201 0.0819565 0.737547 0.264779 0.737547 0.264779C0.696701 0.378255 0.737547 0.504339 0.737547 0.504339C0.812432 0.800637 1.16643 1.29237 1.24132 1.39323C1.24812 1.39954 1.24812 1.39954 1.24812 1.39954C1.25493 1.39954 1.25493 1.39323 1.25493 1.39323C1.37747 0.289996 1.13239 0.00630559 1.13239 0.00630559Z" fill="var(--fill-0, #CE0E2D)"/>
<path id="Vector_11" d="M1.4048 1.39323C1.4116 1.39323 1.41841 1.38693 1.41841 1.38693C1.5001 1.27975 1.8473 0.79433 1.92218 0.498031C1.92218 0.498031 1.96303 0.353034 1.92218 0.258471C1.92218 0.258471 1.86772 0.0756485 1.64987 0.0252147C1.64987 0.0252147 1.5886 0.0126062 1.52053 -2.19975e-06C1.52053 -2.19975e-06 1.27545 0.289992 1.39799 1.38062C1.39799 1.39323 1.4048 1.39323 1.4048 1.39323Z" fill="var(--fill-0, #CE0E2D)"/>
<path id="Vector_12" d="M1.59539 1.60758C1.59539 1.60758 1.58858 1.60758 1.58858 1.61388C1.58858 1.61388 1.58858 1.62018 1.58858 1.62649C1.67027 1.67692 1.90173 1.83453 2.01746 1.85974C2.01746 1.85974 2.2285 1.92909 2.41231 1.63279L1.59539 1.60758Z" fill="var(--fill-0, #CE0E2D)"/>
<path id="Vector_13" d="M2.63696 0.958242C2.63696 0.958242 1.94258 1.30497 1.58177 1.53193C1.58177 1.53193 1.57496 1.53823 1.57496 1.54453C1.57496 1.54453 1.57496 1.55084 1.58177 1.55084C1.71112 1.55084 2.19446 1.55084 2.20808 1.55084C2.20808 1.55084 2.26935 1.55084 2.35104 1.51932C2.35104 1.51932 2.52123 1.46888 2.61654 1.28606C2.61654 1.27976 2.69823 1.13476 2.63696 0.958242Z" fill="var(--fill-0, #CE0E2D)"/>
<path id="Vector_14" d="M1.51374 1.45625C1.51374 1.45625 1.52054 1.46255 1.52735 1.45625C1.64308 1.39951 2.13323 1.17256 2.33747 0.989736C2.33747 0.989736 2.46681 0.895172 2.47362 0.743871C2.48723 0.529527 2.25577 0.334096 2.25577 0.334096C2.25577 0.334096 1.82689 0.806913 1.51374 1.44364C1.51374 1.44364 1.50693 1.44994 1.51374 1.45625Z" fill="var(--fill-0, #CE0E2D)"/>
<path id="Vector_15" d="M2.09917 0.989741C2.31702 0.989741 2.31702 0.674529 2.09917 0.674529C1.88133 0.674529 1.88133 0.989741 2.09917 0.989741Z" fill="var(--fill-0, #CE0E2D)"/>
</g>
<defs>
<clipPath id="clip0_306_18414">
<rect width="9.26721" height="1.89127" fill="white"/>
</clipPath>
</defs>
</svg>
