<svg preserveAspectRatio="none" width="100%" height="100%" overflow="visible" style="display: block;" viewBox="0 0 1.60758 1.60758" fill="none" xmlns="http://www.w3.org/2000/svg">
<g id="&#226;&#134;&#179; Icon Color">
<path fill-rule="evenodd" clip-rule="evenodd" d="M1.60758 0.803789C1.60758 0.359868 1.24771 0 0.803789 0C0.359868 0 0 0.359868 0 0.803789C0 1.24771 0.359868 1.60758 0.803789 1.60758C1.24771 1.60758 1.60758 1.24771 1.60758 0.803789ZM0.141845 0.803789C0.141845 0.438207 0.438207 0.141845 0.803789 0.141845C1.16937 0.141845 1.46573 0.438207 1.46573 0.803789C1.46573 1.16937 1.16937 1.46573 0.803789 1.46573C0.438207 1.46573 0.141845 1.16937 0.141845 0.803789Z" fill="var(--fill-0, #2C2D2E)"/>
<path fill-rule="evenodd" clip-rule="evenodd" d="M0.780148 0.425535C0.819317 0.425535 0.85107 0.457288 0.85107 0.496458V0.807238L1.14284 0.953121C1.17787 0.970638 1.19207 1.01324 1.17455 1.04827C1.15704 1.08331 1.11444 1.09751 1.0794 1.07999L0.74843 0.914505C0.724403 0.902492 0.709225 0.877934 0.709225 0.85107V0.496458C0.709225 0.457288 0.740978 0.425535 0.780148 0.425535Z" fill="var(--fill-0, #2C2D2E)"/>
</g>
</svg>
