<svg preserveAspectRatio="none" width="100%" height="100%" overflow="visible" style="display: block;" viewBox="0 0 2.26952 2.26952" fill="none" xmlns="http://www.w3.org/2000/svg">
<path id="Vector" d="M1.47611 1.13476C1.47611 1.32299 1.32299 1.47611 1.13476 1.47611C0.946532 1.47611 0.79341 1.32299 0.79341 1.13476C0.79341 0.946532 0.946532 0.79341 1.13476 0.79341C1.32299 0.79341 1.47611 0.946532 1.47611 1.13476ZM1.13476 0C0.509082 0 0 0.509082 0 1.13476C0 1.76044 0.509082 2.26952 1.13476 2.26952C1.36398 2.26952 1.58505 2.20129 1.77399 2.07214L1.77725 2.06987L1.62434 1.89214L1.62179 1.89384C1.47632 1.98739 1.30788 2.03689 1.13476 2.03689C0.63731 2.03689 0.232626 1.63221 0.232626 1.13476C0.232626 0.63731 0.63731 0.232626 1.13476 0.232626C1.63221 0.232626 2.0369 0.63731 2.0369 1.13476C2.0369 1.19923 2.02973 1.26448 2.01562 1.32866C1.98711 1.44576 1.90512 1.48164 1.84356 1.47689C1.78164 1.47185 1.70923 1.42774 1.70874 1.3198V1.23753V1.13476C1.70874 0.818233 1.45129 0.560784 1.13476 0.560784C0.818233 0.560784 0.560784 0.818233 0.560784 1.13476C0.560784 1.45129 0.818233 1.70874 1.13476 1.70874C1.28852 1.70874 1.43271 1.64859 1.54143 1.5393C1.60462 1.63767 1.70767 1.69937 1.82491 1.70874C1.83498 1.70959 1.84526 1.71001 1.85548 1.71001C1.93796 1.71001 2.0198 1.68242 2.08576 1.63228C2.15378 1.58065 2.20456 1.50597 2.23264 1.41625C2.23711 1.40178 2.24534 1.36859 2.24541 1.36838L2.24562 1.36717C2.26215 1.29519 2.26952 1.22341 2.26952 1.13476C2.26952 0.509082 1.76044 0 1.13476 0" fill="var(--fill-0, #0077FF)"/>
</svg>
