<svg preserveAspectRatio="none" width="100%" height="100%" overflow="visible" style="display: block;" viewBox="0 0 1.22932 0.28369" fill="none" xmlns="http://www.w3.org/2000/svg">
<path id="&#226;&#134;&#179; Icon Color" d="M1.08748 0C1.16582 0 1.22932 0.0635062 1.22932 0.141845C1.22932 0.220184 1.16582 0.28369 1.08748 0.28369C1.00914 0.28369 0.945634 0.220184 0.945634 0.141845C0.945634 0.0635062 1.00914 0 1.08748 0ZM0.614662 0C0.693001 0 0.756507 0.0635062 0.756507 0.141845C0.756507 0.220184 0.693001 0.28369 0.614662 0.28369C0.536323 0.28369 0.472817 0.220184 0.472817 0.141845C0.472817 0.0635062 0.536323 0 0.614662 0ZM0.141845 0C0.220184 0 0.28369 0.0635062 0.28369 0.141845C0.28369 0.220184 0.220184 0.28369 0.141845 0.28369C0.0635062 0.28369 0 0.220184 0 0.141845C0 0.0635062 0.0635062 0 0.141845 0Z" fill="var(--fill-0, #CFD1D6)"/>
</svg>
