<svg preserveAspectRatio="none" width="100%" height="100%" overflow="visible" style="display: block;" viewBox="0 0 1.51301 1.51301" fill="none" xmlns="http://www.w3.org/2000/svg">
<path id="&#226;&#134;&#179; Icon Color" fill-rule="evenodd" clip-rule="evenodd" d="M0.106356 0.106356C1.12728e-08 0.212713 0 0.383891 0 0.726247V0.786767C0 1.12912 1.12728e-08 1.3003 0.106356 1.40666C0.212713 1.51301 0.383891 1.51301 0.726247 1.51301H0.786767C1.12912 1.51301 1.3003 1.51301 1.40666 1.40666C1.51301 1.3003 1.51301 1.12912 1.51301 0.786767V0.726247C1.51301 0.383891 1.51301 0.212713 1.40666 0.106356C1.3003 0 1.12912 0 0.786767 0H0.726247C0.383891 0 0.212713 0 0.106356 0.106356ZM0.255324 0.472817C0.26354 0.868563 0.460721 1.10639 0.806423 1.10639H0.826019V0.879978C0.95305 0.892662 1.04911 0.985892 1.08766 1.10639H1.26715C1.21786 0.926276 1.08829 0.826704 1.00739 0.788652C1.08829 0.74172 1.20205 0.627564 1.22923 0.472817H1.06617C1.03077 0.59839 0.925874 0.712547 0.826019 0.723328V0.472817H0.662959V0.911688C0.561839 0.88632 0.434178 0.763285 0.42849 0.472817H0.255324Z" fill="var(--fill-0, #2C2D2E)"/>
</svg>
