<svg preserveAspectRatio="none" width="100%" height="100%" overflow="visible" style="display: block;" viewBox="0 0 1.03369 1.03123" fill="none" xmlns="http://www.w3.org/2000/svg">
<path id="Vector" d="M1.03123 0.576603H0.23286C0.255037 0.731842 0.36592 0.831639 0.532248 0.831639C0.648677 0.831639 0.737387 0.78174 0.787285 0.709665L0.99242 0.742931C0.920345 0.931436 0.726297 1.03123 0.515615 1.03123C0.216225 1.03123 0 0.815006 0 0.515616C0 0.216226 0.216225 0 0.515615 0C0.815005 0 1.03123 0.216226 1.03123 0.504527C1.03678 0.532249 1.03123 0.554426 1.03123 0.576603ZM0.249492 0.404731H0.798371C0.759561 0.282757 0.659765 0.194049 0.521158 0.194049C0.388096 0.188505 0.282757 0.277213 0.249492 0.404731Z" fill="var(--fill-0, white)"/>
</svg>
