<svg preserveAspectRatio="none" width="100%" height="100%" overflow="visible" style="display: block;" viewBox="0 0 2.08039 1.51301" fill="none" xmlns="http://www.w3.org/2000/svg">
<path id="&#226;&#134;&#179; Icon Color" d="M1.46573 0.85107C1.61567 0.85107 1.74232 0.950772 1.783 1.08749L1.98583 1.08748C2.03806 1.08748 2.08039 1.12982 2.08039 1.18204C2.08039 1.23427 2.03806 1.27661 1.98583 1.27661L1.78297 1.27668C1.74226 1.41336 1.61563 1.51301 1.46573 1.51301C1.31583 1.51301 1.1892 1.41336 1.14849 1.27668L0.0945634 1.27661C0.0423375 1.27661 0 1.23427 0 1.18204C0 1.12982 0.0423375 1.08748 0.0945634 1.08748L1.14846 1.08749C1.18914 0.950772 1.3158 0.85107 1.46573 0.85107ZM1.46573 1.01656C1.37434 1.01656 1.30025 1.09065 1.30025 1.18204C1.30025 1.27344 1.37434 1.34753 1.46573 1.34753C1.55713 1.34753 1.63122 1.27344 1.63122 1.18204C1.63122 1.09065 1.55713 1.01656 1.46573 1.01656ZM0.709225 0C0.859162 0 0.985812 0.0997015 1.0265 0.236424L1.98583 0.236408C2.03806 0.236408 2.08039 0.278746 2.08039 0.330972C2.08039 0.383198 2.03806 0.425535 1.98583 0.425535L1.02647 0.425614C0.985754 0.562288 0.859127 0.661944 0.709225 0.661944C0.559323 0.661944 0.432697 0.562288 0.391983 0.425614L0.0945634 0.425535C0.0423375 0.425535 0 0.383198 0 0.330972C0 0.278746 0.0423375 0.236408 0.0945634 0.236408L0.391955 0.236424C0.432638 0.0997015 0.559288 0 0.709225 0ZM0.709225 0.165486C0.61783 0.165486 0.543739 0.239576 0.543739 0.330972C0.543739 0.422367 0.61783 0.496458 0.709225 0.496458C0.800621 0.496458 0.874711 0.422367 0.874711 0.330972C0.874711 0.239576 0.800621 0.165486 0.709225 0.165486Z" fill="var(--fill-0, #2C2D2E)"/>
</svg>
