<svg preserveAspectRatio="none" width="100%" height="100%" overflow="visible" style="display: block;" viewBox="0 0 1.13476 0.85107" fill="none" xmlns="http://www.w3.org/2000/svg">
<path id="&#226;&#134;&#179; Color Foreground" fill-rule="evenodd" clip-rule="evenodd" d="M0.0780091 0.36638L0.687371 0.128836C0.977551 0.019606 1.03785 0.000632715 1.07715 6.70505e-06C1.08579 -0.000131358 1.10512 0.00180717 1.11764 0.0110006C1.12821 0.0187624 1.13111 0.0292514 1.13251 0.0366084C1.1339 0.0439655 1.13563 0.0607353 1.13426 0.0738362C1.11853 0.22336 1.05049 0.586226 1.01587 0.753698C1.00122 0.824564 0.972406 0.848324 0.944465 0.850648C0.883786 0.855702 0.837708 0.814355 0.778937 0.779491L0.54575 0.637735C0.442585 0.576212 0.509463 0.542396 0.568257 0.487133C0.583642 0.472665 0.850995 0.25259 0.856167 0.232625C0.856794 0.230129 0.857415 0.220824 0.851307 0.215906C0.845198 0.210989 0.836176 0.212691 0.829671 0.21401C0.820449 0.215905 0.673534 0.303784 0.38893 0.477652C0.347228 0.503568 0.309455 0.516196 0.275615 0.515534C0.238306 0.514804 0.166541 0.496444 0.113191 0.480748C0.0477531 0.461499 -0.00425553 0.45132 0.00027513 0.418628C0.00263241 0.401601 0.0285437 0.384188 0.0780069 0.366383L0.0780091 0.36638Z" fill="var(--fill-0, white)"/>
</svg>
