<svg preserveAspectRatio="none" width="100%" height="100%" overflow="visible" style="display: block;" viewBox="0 0 5.61648 1.65251" fill="none" xmlns="http://www.w3.org/2000/svg">
<g id="&#208;&#187;&#208;&#181;&#208;&#180;&#208;&#184;">
<path d="M0.282253 0.810572L0.328089 0.0241241H1.24722V1.27858H0.969791V0.277428H0.586217L0.557268 0.805747C0.540381 1.11454 0.388399 1.29064 0.137508 1.29064C0.108559 1.29064 0.0675477 1.28823 0.0265366 1.28341L0 1.01804C0.028949 1.02045 0.0820222 1.02045 0.103734 1.02045C0.226767 1.02045 0.272603 0.962554 0.282253 0.810572Z" fill="var(--fill-0, #2C2D2E)"/>
<path d="M2.79096 0.636878C2.79096 0.670652 2.78855 0.699601 2.78613 0.726137H1.77774C1.80428 0.919131 1.9442 1.0494 2.15649 1.0494C2.30365 1.0494 2.41945 0.986678 2.47976 0.897419L2.7403 0.940843C2.64621 1.17967 2.40015 1.30271 2.13961 1.30271C1.75844 1.30271 1.48825 1.0301 1.48825 0.651353C1.48825 0.272603 1.75844 0 2.13961 0C2.52077 0 2.79096 0.275016 2.79096 0.636878ZM2.13961 0.241242C1.97074 0.241242 1.84047 0.347388 1.79463 0.50902H2.48941C2.44357 0.352213 2.3133 0.241242 2.13961 0.241242Z" fill="var(--fill-0, #2C2D2E)"/>
<path d="M3.07885 1.65251H2.80142V1.02528H2.83278C2.97029 1.02528 3.03784 0.892594 3.05955 0.665827L3.12227 0.0241241H4.0414V1.02528H4.25852V1.65251H3.98109V1.27858H3.07885V1.65251ZM3.22359 1.02528H3.76397V0.277428H3.37799L3.33939 0.661002C3.32009 0.849171 3.29114 0.960142 3.22359 1.02528Z" fill="var(--fill-0, #2C2D2E)"/>
<path d="M4.84451 1.27858H4.45128V0.0241241H4.71665V0.955317H4.75525L5.22326 0.0241241H5.61648V1.27858H5.35112V0.347388H5.31252L4.84451 1.27858Z" fill="var(--fill-0, #2C2D2E)"/>
</g>
</svg>
