<svg preserveAspectRatio="none" width="100%" height="100%" overflow="visible" style="display: block;" viewBox="0 0 5.19163 4.26456" fill="none" xmlns="http://www.w3.org/2000/svg">
<path id="&#226;&#134;&#179; Icon Color" fill-rule="evenodd" clip-rule="evenodd" d="M1.66874 1.29791C1.46393 1.29791 1.29791 1.13188 1.29791 0.927077C1.29791 0.722273 1.46393 0.556246 1.66874 0.556246C1.87354 0.556246 2.03957 0.722273 2.03957 0.927077C2.03957 1.13188 1.87354 1.29791 1.66874 1.29791ZM0.784104 0.648954C0.902238 0.272829 1.25363 0 1.66874 0C2.08385 0 2.43524 0.272829 2.55337 0.648954H4.91351C5.06711 0.648954 5.19163 0.773474 5.19163 0.927077C5.19163 1.08068 5.06711 1.2052 4.91351 1.2052H2.55337C2.43524 1.58133 2.08385 1.85415 1.66874 1.85415C1.25363 1.85415 0.902238 1.58133 0.784104 1.2052H0.278123C0.12452 1.2052 0 1.08068 0 0.927077C0 0.773474 0.12452 0.648954 0.278123 0.648954H0.784104ZM3.52289 3.70831C3.7277 3.70831 3.89372 3.54228 3.89372 3.33748C3.89372 3.13267 3.7277 2.96665 3.52289 2.96665C3.31809 2.96665 3.15206 3.13267 3.15206 3.33748C3.15206 3.54228 3.31809 3.70831 3.52289 3.70831ZM4.40753 3.05936C4.28939 2.68323 3.93801 2.4104 3.52289 2.4104C3.10778 2.4104 2.75639 2.68323 2.63826 3.05936H0.278123C0.12452 3.05936 0 3.18388 0 3.33748C0 3.49108 0.12452 3.6156 0.278123 3.6156H2.63826C2.75639 3.99173 3.10778 4.26456 3.52289 4.26456C3.93801 4.26456 4.28939 3.99173 4.40753 3.6156H4.91351C5.06711 3.6156 5.19163 3.49108 5.19163 3.33748C5.19163 3.18388 5.06711 3.05936 4.91351 3.05936H4.40753Z" fill="var(--fill-0, #2C2D2E)"/>
</svg>
