<svg preserveAspectRatio="none" width="100%" height="100%" overflow="visible" style="display: block;" viewBox="0 0 0.28369 1.22932" fill="none" xmlns="http://www.w3.org/2000/svg">
<path id="&#226;&#134;&#179; Icon Color" d="M0.141845 0.28369C0.21986 0.28369 0.28369 0.21986 0.28369 0.141845C0.28369 0.0638303 0.21986 0 0.141845 0C0.0638303 0 0 0.0638303 0 0.141845C0 0.21986 0.0638303 0.28369 0.141845 0.28369ZM0.141845 0.472817C0.0638303 0.472817 0 0.536647 0 0.614662C0 0.692677 0.0638303 0.756507 0.141845 0.756507C0.21986 0.756507 0.28369 0.692677 0.28369 0.614662C0.28369 0.536647 0.21986 0.472817 0.141845 0.472817ZM0.141845 0.945634C0.0638303 0.945634 0 1.00946 0 1.08748C0 1.16549 0.0638303 1.22932 0.141845 1.22932C0.21986 1.22932 0.28369 1.16549 0.28369 1.08748C0.28369 1.00946 0.21986 0.945634 0.141845 0.945634Z" fill="var(--fill-0, white)"/>
</svg>
