<svg preserveAspectRatio="none" width="100%" height="100%" overflow="visible" style="display: block;" viewBox="0 0 0.864905 1.03123" fill="none" xmlns="http://www.w3.org/2000/svg">
<path id="Vector" d="M0.864905 0.454629V1.00905H0.704122L0.659768 0.853816C0.60987 0.93698 0.504528 1.03123 0.343745 1.03123C0.144151 1.03123 0 0.89817 0 0.715209C0 0.532249 0.144152 0.404731 0.437998 0.404731H0.654224C0.643135 0.277213 0.576604 0.188505 0.45463 0.188505C0.354833 0.188505 0.288302 0.243947 0.255036 0.304934L0.0554426 0.271669C0.105341 0.0997967 0.277214 0 0.465719 0C0.709667 0 0.864905 0.166328 0.864905 0.454629ZM0.648679 0.576603H0.443541C0.277213 0.576603 0.22177 0.632045 0.22177 0.704121C0.22177 0.787285 0.288302 0.842727 0.399187 0.842727C0.543338 0.842727 0.648679 0.737386 0.648679 0.576603Z" fill="var(--fill-0, white)"/>
</svg>
