<svg preserveAspectRatio="none" width="100%" height="100%" overflow="visible" style="display: block;" viewBox="0 0 32.882 8.60375" fill="none" xmlns="http://www.w3.org/2000/svg">
<g id="Union">
<path fill-rule="evenodd" clip-rule="evenodd" d="M29.5584 0C27.7977 0 26.3807 1.44472 26.3807 3.21422C26.3807 4.98372 27.7977 6.42844 29.5584 6.42844C30.3673 6.42844 31.1038 6.12344 31.6635 5.62206L31.9373 6.20928H32.882V0.146085L31.9373 0.146085L31.6453 0.790211C31.0878 0.298456 30.3586 0 29.5584 0ZM29.6314 1.20497C28.5453 1.20497 27.6547 2.09888 27.6547 3.21422C27.6547 4.32957 28.5453 5.22347 29.6314 5.22347C30.7175 5.22347 31.6082 4.32957 31.6082 3.21422C31.6082 2.09888 30.7175 1.20497 29.6314 1.20497Z" fill="var(--fill-0, #2C2D2E)"/>
<path d="M4.03382 2.57617V0.199923H5.36684V6.22747H4.03382V3.79327H1.33302V6.22747H0V0.199923H1.33302V2.57617H4.03382Z" fill="var(--fill-0, #2C2D2E)"/>
<path fill-rule="evenodd" clip-rule="evenodd" d="M6.38845 3.21422C6.38845 1.44472 7.80553 0 9.56614 0C10.3664 0 11.0956 0.298456 11.6531 0.790211L11.945 0.146085L12.8898 0.146085V6.20928H11.945L11.6713 5.62206C11.1115 6.12344 10.3751 6.42844 9.56614 6.42844C7.80553 6.42844 6.38845 4.98372 6.38845 3.21422ZM7.66244 3.21422C7.66244 2.09888 8.55308 1.20497 9.63919 1.20497C10.7253 1.20497 11.616 2.09888 11.616 3.21422C11.616 4.32957 10.7253 5.22347 9.63919 5.22347C8.55308 5.22347 7.66244 4.32957 7.66244 3.21422Z" fill="var(--fill-0, #2C2D2E)"/>
<path d="M17.134 4.54674L18.6756 0.199951H20.0318L17.5629 6.98095C17.1572 8.10532 16.5544 8.60375 15.4416 8.60375H14.5259L14.41 7.38665H15.5344C15.9748 7.38665 16.1835 7.22437 16.3574 6.73753L16.4269 6.55206L13.7493 0.199951H15.175L16.9485 4.54674H17.134Z" fill="var(--fill-0, #2C2D2E)"/>
<path d="M24.6723 6.22748H26.4226L23.6522 3.09778L26.1908 0.199923H24.6027L22.5858 2.54139H22.2613V0.199923H20.9282V6.22748H22.2613V3.82805H22.5858L24.6723 6.22748Z" fill="var(--fill-0, #2C2D2E)"/>
</g>
</svg>
