<svg preserveAspectRatio="none" width="100%" height="100%" overflow="visible" style="display: block;" viewBox="0 0 6.28333 23.3663" fill="none" xmlns="http://www.w3.org/2000/svg">
<path id="line (Stroke)" fill-rule="evenodd" clip-rule="evenodd" d="M0.971525 0.210276C1.16858 -0.0331347 1.52565 -0.0707144 1.76906 0.126339L5.96368 3.52211L2.4776 5.63873L6.14946 8.0274L2.5493 9.69284L6.0047 12.0906L2.43652 14.3602L5.9822 16.8205L2.82452 18.966L6.28333 19.716L1.76119 23.2462C1.51433 23.4389 1.15798 23.395 0.965274 23.1482C0.772562 22.9013 0.816461 22.5449 1.06332 22.3522L3.67755 20.3115L0 19.514L3.97868 16.8107L0.387995 14.3191L3.95618 12.0495L0.275219 9.49525L3.81142 7.8594L0.346919 5.60562L3.9972 3.3893L1.05546 1.00781C0.81205 0.810753 0.774471 0.453686 0.971525 0.210276Z" fill="var(--fill-0, #FFC700)"/>
</svg>
