<svg width="12" height="38" viewBox="0 0 12 38" fill="none" xmlns="http://www.w3.org/2000/svg">
<path d="M6 14C9.31371 14 12 16.6863 12 20C12 23.3137 9.31371 26 6 26C2.68629 26 0 23.3137 0 20C0 16.6863 2.68629 14 6 14ZM8.93262 17.0674C8.60314 16.7379 8.05376 16.742 7.7373 17.0537L6.00098 18.7852L4.26074 17.0498C3.96194 16.751 3.39064 16.733 3.06543 17.0625C2.74023 17.3877 2.75391 17.959 3.05273 18.2578L4.79297 19.9941L3.05273 21.7383C2.75391 22.0371 2.74023 22.6045 3.06543 22.9297C3.39063 23.2593 3.96192 23.2456 4.26074 22.9424L6.00098 21.2021L7.7373 22.9385C8.05375 23.2546 8.60311 23.2543 8.93262 22.9248C9.2575 22.5996 9.25722 22.0507 8.94531 21.7344L7.20996 19.9941L8.94531 18.2627C9.25725 17.9464 9.25756 17.3926 8.93262 17.0674Z" fill="black" fill-opacity="0.5"/>
</svg>
