<svg width="12" height="38" viewBox="0 0 12 38" fill="none" xmlns="http://www.w3.org/2000/svg">
<path d="M6 14C2.68629 14 0 16.6863 0 20C0 23.3137 2.68629 26 6 26C9.31371 26 12 23.3137 12 20C12 16.6863 9.31371 14 6 14ZM8.14648 19.2676C8.46143 18.9528 8.99985 19.1758 9 19.6211V22C9 22.5522 8.55212 22.9998 8 23H5.62207C5.17668 22.9999 4.95365 22.4615 5.26855 22.1465L8.14648 19.2676ZM6.37988 17C6.82501 17.0003 7.04803 17.5386 6.7334 17.8535L3.85352 20.7314C3.53853 21.0463 3.00007 20.8233 3 20.3779V18C3.00019 17.4479 3.44783 17 4 17H6.37988Z" fill="black" fill-opacity="0.5"/>
</svg>
