<svg preserveAspectRatio="none" width="100%" height="100%" overflow="visible" style="display: block;" viewBox="0 0 71.4793 71.4798" fill="none" xmlns="http://www.w3.org/2000/svg">
<g id="Group 2087325857">
<path id="Vector 1040 (Stroke)" fill-rule="evenodd" clip-rule="evenodd" d="M51.098 4.11342C54.5753 5.61105 57.0437 7.67295 59.164 9.89769C60.1862 10.9703 61.1496 12.1055 62.0616 13.1802C62.1317 13.2628 62.2015 13.3451 62.271 13.4269C63.268 14.6009 64.2399 15.7344 65.3318 16.8653C68.1007 19.733 68.5967 23.8585 68.7845 26.7541C68.8486 27.7431 68.8833 28.8303 68.9146 29.8131C68.9304 30.3106 68.9454 30.7814 68.963 31.1992C69.0212 32.5844 69.1115 33.6504 69.2879 34.4805C70.2659 39.083 70.5057 45.5063 69.6484 50.2811C68.2285 58.1895 63.9353 64.2605 56.9118 67.8167C55.0406 68.7641 53.0629 69.0546 51.4792 69.1945C50.8029 69.2542 50.1172 69.2915 49.5091 69.3246C49.3971 69.3307 49.2878 69.3366 49.1817 69.3425C48.4632 69.3825 47.8591 69.4225 47.3111 69.4902C47.1534 69.5096 46.9948 69.5293 46.8353 69.5491C44.4261 69.8481 41.813 70.1725 39.1076 70.1725C38.804 70.1725 38.486 70.1731 38.1553 70.1737C35.7737 70.1782 32.7367 70.1839 29.7311 69.9755C26.3791 69.7431 22.6283 69.2238 19.6448 67.8944C15.0242 65.8355 11.8618 61.9937 9.38507 58.9847C9.20988 58.7719 9.03812 58.5632 8.86952 58.3597C5.71706 54.5533 3.03275 50.3896 1.83445 44.929C0.40369 38.409 2.13874 30.2385 3.83618 24.652C3.96894 24.215 4.08387 23.7653 4.21921 23.2268C4.22722 23.195 4.23532 23.1627 4.24352 23.13C4.3665 22.6402 4.5116 22.0624 4.68311 21.4841C5.06085 20.2105 5.62056 18.735 6.67449 17.2813C9.6884 13.1241 13.7406 8.14614 18.3309 4.71692C18.6674 4.27459 19.0316 3.95024 19.3207 3.72901C19.9535 3.24486 20.6398 2.93239 21.2048 2.72083C22.3491 2.29234 23.7296 2.01251 25.1104 1.81687C27.9234 1.41832 31.4888 1.26967 34.9675 1.31148C38.4542 1.35338 42.0147 1.58868 44.8335 2.00751C46.2244 2.21419 47.5671 2.48433 48.6694 2.84837C49.2123 3.02765 49.8383 3.27493 50.4229 3.63185C50.594 3.7363 50.8346 3.89321 51.098 4.11342ZM46.4359 10.3179C46.9106 10.797 47.4968 11.1332 48.1287 11.298C50.5175 12.3018 52.2173 13.6836 53.8824 15.4308C54.7456 16.3365 55.572 17.3099 56.5195 18.426C56.5775 18.4943 56.6359 18.5631 56.6948 18.6324C57.6933 19.8083 58.8056 21.1095 60.0847 22.4343C60.6798 23.0506 61.148 24.3957 61.3353 27.2849C61.392 28.1584 61.4174 28.976 61.4447 29.8543C61.4613 30.3864 61.4786 30.9409 61.5039 31.5435C61.565 32.9987 61.6729 34.6426 62.0002 36.1828C62.7848 39.875 62.9596 45.2202 62.3109 48.833C61.3173 54.3671 58.4959 58.3215 53.6649 60.7677C53.0485 61.0797 52.1756 61.2772 50.8524 61.3941C50.3064 61.4424 49.7598 61.4722 49.1505 61.5055C49.0314 61.512 48.9099 61.5186 48.7856 61.5255C48.0608 61.5659 47.2459 61.6161 46.4376 61.7159C46.3165 61.7309 46.1961 61.7458 46.0764 61.7606C43.5646 62.0714 41.3579 62.3445 39.1076 62.3445C38.7879 62.3445 38.46 62.345 38.125 62.3456C35.7247 62.3495 32.957 62.3541 30.2239 62.1646C27.0385 61.9437 24.3378 61.4799 22.5651 60.69C19.5871 59.3631 17.4782 56.8159 14.7013 53.4618C14.637 53.3841 14.5722 53.3059 14.5071 53.2272C11.7508 49.8992 9.92337 46.8772 9.1107 43.1738C8.16307 38.8555 9.30562 32.4408 10.9503 27.028C11.1479 26.3776 11.3066 25.7488 11.4391 25.2215L11.45 25.1779C11.5847 24.6423 11.6914 24.2174 11.8127 23.8085C12.0499 23.0086 12.2865 22.4764 12.6186 22.0183C15.6675 17.8128 19.371 13.3986 23.1859 10.7131L24.3302 9.90762C24.7696 9.79665 25.3597 9.68071 26.1103 9.57437C28.4304 9.24565 31.601 9.09954 34.8819 9.13897C38.1548 9.17831 41.3774 9.40023 43.7858 9.75808C45.0085 9.93974 45.8905 10.1378 46.4263 10.3148C46.4296 10.3158 46.4328 10.3169 46.4359 10.3179Z" fill="var(--fill-0, #FFC700)" stroke="var(--stroke-0, black)" stroke-width="2.60934" stroke-linecap="round"/>
<path id="Vector 1041 (Stroke)" fill-rule="evenodd" clip-rule="evenodd" d="M27.8738 19.2537C29.9356 19.2537 31.607 21.006 31.607 23.1677V32.9903C31.607 35.1519 29.9356 36.9043 27.8738 36.9043C25.8121 36.9043 24.1407 35.1519 24.1407 32.9903V23.1677C24.1407 21.006 25.8121 19.2537 27.8738 19.2537Z" fill="var(--fill-0, #FFC700)" stroke="var(--stroke-0, black)" stroke-width="2.60934" stroke-linecap="round"/>
<path id="Vector 1042 (Stroke)" fill-rule="evenodd" clip-rule="evenodd" d="M45.3752 18.1019C47.437 18.1019 49.1084 19.8543 49.1084 22.0159V29.493C49.1084 30.9356 49.119 31.2367 49.2455 31.6348C49.8975 33.6855 48.8404 35.9021 46.8845 36.5856C44.9285 37.2692 42.8143 36.1609 42.1624 34.1102C41.6279 32.4291 41.6356 30.879 41.641 29.792C41.6416 29.688 41.6421 29.5882 41.6421 29.493V22.0159C41.6421 19.8543 43.3134 18.1019 45.3752 18.1019Z" fill="var(--fill-0, #FFC700)" stroke="var(--stroke-0, black)" stroke-width="2.60934" stroke-linecap="round"/>
<g id="Vector 1043 (Stroke)">
<path fill-rule="evenodd" clip-rule="evenodd" d="M29.9369 43.5258C29.3126 42.2791 28.0658 41.4286 26.6295 41.4286C24.5677 41.4286 22.8963 43.181 22.8963 45.3426C22.8963 46.6192 23.4158 47.5529 23.7291 48.0204C24.0598 48.5138 24.4278 48.8812 24.6519 49.0928C24.8579 49.2873 25.0749 49.471 25.1945 49.5723C25.2092 49.5847 25.2224 49.5959 25.234 49.6057C25.2745 49.6402 25.3029 49.6648 25.3216 49.6811C25.3995 49.7678 25.4896 49.8736 25.6229 50.031C25.6288 50.038 25.6349 50.0451 25.641 50.0524C25.7859 50.2235 25.9883 50.4626 26.2084 50.7007C26.6693 51.1994 27.3829 51.8926 28.3882 52.3967C30.6396 53.5256 32.6844 54.1107 35.0132 54.5093C38.4145 55.0916 42.1196 54.3207 45.033 52.5106C45.8312 52.0147 46.5414 51.4807 47.138 51.0223C47.2684 50.9221 47.3917 50.8269 47.5097 50.7358C47.9685 50.3815 48.348 50.0884 48.7527 49.8056C50.4682 48.6065 50.9318 46.1764 49.7881 44.3778C48.6445 42.5792 46.3266 42.0932 44.6111 43.2923C44.0458 43.6875 43.4909 44.1164 43.021 44.4796C42.9179 44.5593 42.8189 44.6358 42.7248 44.7081C42.1615 45.1409 41.6948 45.4853 41.2267 45.7762C39.7879 46.6701 37.8517 47.0636 36.2163 46.7836C34.4572 46.4825 33.137 46.0909 31.6889 45.3743C31.6653 45.3522 31.6263 45.3138 31.5703 45.2532C31.4735 45.1486 31.3714 45.0288 31.2064 44.8339C31.201 44.8276 31.1956 44.8212 31.1901 44.8147C31.045 44.6433 30.4358 44.0058 30.2153 43.768C30.3166 43.8592 30.0594 43.5998 30.2153 43.768C30.1113 43.6744 30.0089 43.587 29.9369 43.5258Z" fill="var(--fill-0, #FFC700)"/>
<path d="M30.2153 43.768C30.4358 44.0058 31.045 44.6433 31.1901 44.8147C31.1956 44.8212 31.201 44.8276 31.2064 44.8339C31.3714 45.0288 31.4735 45.1486 31.5703 45.2532C31.6263 45.3138 31.6653 45.3522 31.6889 45.3743C33.137 46.0909 34.4572 46.4825 36.2163 46.7836C37.8517 47.0636 39.7879 46.6701 41.2267 45.7762C41.6948 45.4853 42.1615 45.1409 42.7248 44.7081C42.8189 44.6358 42.9179 44.5593 43.021 44.4796C43.4909 44.1164 44.0458 43.6875 44.6111 43.2923C46.3266 42.0932 48.6445 42.5792 49.7881 44.3778C50.9318 46.1764 50.4682 48.6065 48.7527 49.8056C48.348 50.0884 47.9685 50.3815 47.5097 50.7358C47.3917 50.8269 47.2684 50.9221 47.138 51.0223C46.5414 51.4807 45.8312 52.0147 45.033 52.5106C42.1196 54.3207 38.4145 55.0916 35.0132 54.5093C32.6844 54.1107 30.6396 53.5256 28.3882 52.3967C27.3829 51.8926 26.6693 51.1994 26.2084 50.7007C25.9883 50.4626 25.7859 50.2235 25.641 50.0524C25.6349 50.0451 25.6288 50.038 25.6229 50.031C25.4896 49.8736 25.3995 49.7678 25.3216 49.6811C25.3029 49.6648 25.2745 49.6402 25.234 49.6057C25.2224 49.5959 25.2092 49.5847 25.1945 49.5723C25.0749 49.471 24.8579 49.2873 24.6519 49.0928C24.4278 48.8812 24.0598 48.5138 23.7291 48.0204C23.4158 47.5529 22.8963 46.6192 22.8963 45.3426C22.8963 43.181 24.5677 41.4286 26.6295 41.4286C28.0658 41.4286 29.3126 42.2791 29.9369 43.5258C30.0089 43.587 30.1113 43.6744 30.2153 43.768ZM30.2153 43.768C30.0594 43.5998 30.3166 43.8592 30.2153 43.768ZM29.6438 43.2716C29.6352 43.2634 30.0161 43.5933 30.0161 43.5933" stroke="var(--stroke-0, black)" stroke-width="2.60934" stroke-linecap="round"/>
</g>
</g>
</svg>
