<svg xmlns="http://www.w3.org/2000/svg" viewBox="0 0 80.5 84" fill="none" aria-hidden="true">
  <g fill="#fff">
    <rect x="35" y="0" width="3.5" height="3.5" rx="1.75" />
    <rect x="38.5" y="0" width="3.5" height="3.5" rx="1.75" />
    <rect x="42" y="0" width="3.5" height="3.5" rx="1.75" />
    <rect x="31.5" y="3.5" width="3.5" height="3.5" rx="1.75" />
    <rect x="35" y="3.5" width="3.5" height="3.5" rx="1.75" />
    <rect x="38.5" y="3.5" width="3.5" height="3.5" rx="1.75" />
    <rect x="42" y="3.5" width="3.5" height="3.5" rx="1.75" />
    <rect x="45.5" y="3.5" width="3.5" height="3.5" rx="1.75" />
    <rect x="49" y="3.5" width="3.5" height="3.5" rx="1.75" />
    <rect x="28" y="7" width="3.5" height="3.5" rx="1.75" />
    <rect x="31.5" y="7" width="3.5" height="3.5" rx="1.75" />
    <rect x="35" y="7" width="3.5" height="3.5" rx="1.75" />
    <rect x="42" y="7" width="3.5" height="3.5" rx="1.75" />
    <rect x="45.5" y="7" width="3.5" height="3.5" rx="1.75" />
    <rect x="49" y="7" width="3.5" height="3.5" rx="1.75" />
    <rect x="28" y="10.5" width="3.5" height="3.5" rx="1.75" />
    <rect x="31.5" y="10.5" width="3.5" height="3.5" rx="1.75" />
    <rect x="45.5" y="10.5" width="3.5" height="3.5" rx="1.75" />
    <rect x="49" y="10.5" width="3.5" height="3.5" rx="1.75" />
    <rect x="10.5" y="14" width="3.5" height="3.5" rx="1.75" />
    <rect x="14" y="14" width="3.5" height="3.5" rx="1.75" />
    <rect x="28" y="14" width="3.5" height="3.5" rx="1.75" />
    <rect x="31.5" y="14" width="3.5" height="3.5" rx="1.75" />
    <rect x="45.5" y="14" width="3.5" height="3.5" rx="1.75" />
    <rect x="49" y="14" width="3.5" height="3.5" rx="1.75" />
    <rect x="66.5" y="14" width="3.5" height="3.5" rx="1.75" />
    <rect x="7" y="17.5" width="3.5" height="3.5" rx="1.75" />
    <rect x="10.5" y="17.5" width="3.5" height="3.5" rx="1.75" />
    <rect x="14" y="17.5" width="3.5" height="3.5" rx="1.75" />
    <rect x="17.5" y="17.5" width="3.5" height="3.5" rx="1.75" />
    <rect x="28" y="17.5" width="3.5" height="3.5" rx="1.75" />
    <rect x="31.5" y="17.5" width="3.5" height="3.5" rx="1.75" />
    <rect x="45.5" y="17.5" width="3.5" height="3.5" rx="1.75" />
    <rect x="49" y="17.5" width="3.5" height="3.5" rx="1.75" />
    <rect x="59.5" y="17.5" width="3.5" height="3.5" rx="1.75" />
    <rect x="63" y="17.5" width="3.5" height="3.5" rx="1.75" />
    <rect x="66.5" y="17.5" width="3.5" height="3.5" rx="1.75" />
    <rect x="70" y="17.5" width="3.5" height="3.5" rx="1.75" />
    <rect x="3.5" y="21" width="3.5" height="3.5" rx="1.75" />
    <rect x="7" y="21" width="3.5" height="3.5" rx="1.75" />
    <rect x="10.5" y="21" width="3.5" height="3.5" rx="1.75" />
    <rect x="14" y="21" width="3.5" height="3.5" rx="1.75" />
    <rect x="17.5" y="21" width="3.5" height="3.5" rx="1.75" />
    <rect x="21" y="21" width="3.5" height="3.5" rx="1.75" />
    <rect x="24.5" y="21" width="3.5" height="3.5" rx="1.75" />
    <rect x="28" y="21" width="3.5" height="3.5" rx="1.75" />
    <rect x="31.5" y="21" width="3.5" height="3.5" rx="1.75" />
    <rect x="45.5" y="21" width="3.5" height="3.5" rx="1.75" />
    <rect x="49" y="21" width="3.5" height="3.5" rx="1.75" />
    <rect x="52.5" y="21" width="3.5" height="3.5" rx="1.75" />
    <rect x="56" y="21" width="3.5" height="3.5" rx="1.75" />
    <rect x="59.5" y="21" width="3.5" height="3.5" rx="1.75" />
    <rect x="63" y="21" width="3.5" height="3.5" rx="1.75" />
    <rect x="66.5" y="21" width="3.5" height="3.5" rx="1.75" />
    <rect x="70" y="21" width="3.5" height="3.5" rx="1.75" />
    <rect x="73.5" y="21" width="3.5" height="3.5" rx="1.75" />
    <rect x="3.5" y="24.5" width="3.5" height="3.5" rx="1.75" />
    <rect x="7" y="24.5" width="3.5" height="3.5" rx="1.75" />
    <rect x="21" y="24.5" width="3.5" height="3.5" rx="1.75" />
    <rect x="24.5" y="24.5" width="3.5" height="3.5" rx="1.75" />
    <rect x="28" y="24.5" width="3.5" height="3.5" rx="1.75" />
    <rect x="31.5" y="24.5" width="3.5" height="3.5" rx="1.75" />
    <rect x="45.5" y="24.5" width="3.5" height="3.5" rx="1.75" />
    <rect x="49" y="24.5" width="3.5" height="3.5" rx="1.75" />
    <rect x="52.5" y="24.5" width="3.5" height="3.5" rx="1.75" />
    <rect x="56" y="24.5" width="3.5" height="3.5" rx="1.75" />
    <rect x="59.5" y="24.5" width="3.5" height="3.5" rx="1.75" />
    <rect x="70" y="24.5" width="3.5" height="3.5" rx="1.75" />
    <rect x="73.5" y="24.5" width="3.5" height="3.5" rx="1.75" />
    <rect x="77" y="24.5" width="3.5" height="3.5" rx="1.75" />
    <rect x="0" y="28" width="3.5" height="3.5" rx="1.75" />
    <rect x="3.5" y="28" width="3.5" height="3.5" rx="1.75" />
    <rect x="7" y="28" width="3.5" height="3.5" rx="1.75" />
    <rect x="24.5" y="28" width="3.5" height="3.5" rx="1.75" />
    <rect x="28" y="28" width="3.5" height="3.5" rx="1.75" />
    <rect x="31.5" y="28" width="3.5" height="3.5" rx="1.75" />
    <rect x="45.5" y="28" width="3.5" height="3.5" rx="1.75" />
    <rect x="49" y="28" width="3.5" height="3.5" rx="1.75" />
    <rect x="52.5" y="28" width="3.5" height="3.5" rx="1.75" />
    <rect x="70" y="28" width="3.5" height="3.5" rx="1.75" />
    <rect x="73.5" y="28" width="3.5" height="3.5" rx="1.75" />
    <rect x="77" y="28" width="3.5" height="3.5" rx="1.75" />
    <rect x="3.5" y="31.5" width="3.5" height="3.5" rx="1.75" />
    <rect x="7" y="31.5" width="3.5" height="3.5" rx="1.75" />
    <rect x="10.5" y="31.5" width="3.5" height="3.5" rx="1.75" />
    <rect x="31.5" y="31.5" width="3.5" height="3.5" rx="1.75" />
    <rect x="45.5" y="31.5" width="3.5" height="3.5" rx="1.75" />
    <rect x="66.5" y="31.5" width="3.5" height="3.5" rx="1.75" />
    <rect x="70" y="31.5" width="3.5" height="3.5" rx="1.75" />
    <rect x="73.5" y="31.5" width="3.5" height="3.5" rx="1.75" />
    <rect x="77" y="31.5" width="3.5" height="3.5" rx="1.75" />
    <rect x="7" y="35" width="3.5" height="3.5" rx="1.75" />
    <rect x="10.5" y="35" width="3.5" height="3.5" rx="1.75" />
    <rect x="14" y="35" width="3.5" height="3.5" rx="1.75" />
    <rect x="17.5" y="35" width="3.5" height="3.5" rx="1.75" />
    <rect x="59.5" y="35" width="3.5" height="3.5" rx="1.75" />
    <rect x="63" y="35" width="3.5" height="3.5" rx="1.75" />
    <rect x="66.5" y="35" width="3.5" height="3.5" rx="1.75" />
    <rect x="70" y="35" width="3.5" height="3.5" rx="1.75" />
    <rect x="73.5" y="35" width="3.5" height="3.5" rx="1.75" />
    <rect x="10.5" y="38.5" width="3.5" height="3.5" rx="1.75" />
    <rect x="14" y="38.5" width="3.5" height="3.5" rx="1.75" />
    <rect x="17.5" y="38.5" width="3.5" height="3.5" rx="1.75" />
    <rect x="21" y="38.5" width="3.5" height="3.5" rx="1.75" />
    <rect x="24.5" y="38.5" width="3.5" height="3.5" rx="1.75" />
    <rect x="52.5" y="38.5" width="3.5" height="3.5" rx="1.75" />
    <rect x="56" y="38.5" width="3.5" height="3.5" rx="1.75" />
    <rect x="59.5" y="38.5" width="3.5" height="3.5" rx="1.75" />
    <rect x="63" y="38.5" width="3.5" height="3.5" rx="1.75" />
    <rect x="66.5" y="38.5" width="3.5" height="3.5" rx="1.75" />
    <rect x="17.5" y="42" width="3.5" height="3.5" rx="1.75" />
    <rect x="21" y="42" width="3.5" height="3.5" rx="1.75" />
    <rect x="24.5" y="42" width="3.5" height="3.5" rx="1.75" />
    <rect x="28" y="42" width="3.5" height="3.5" rx="1.75" />
    <rect x="49" y="42" width="3.5" height="3.5" rx="1.75" />
    <rect x="52.5" y="42" width="3.5" height="3.5" rx="1.75" />
    <rect x="56" y="42" width="3.5" height="3.5" rx="1.75" />
    <rect x="59.5" y="42" width="3.5" height="3.5" rx="1.75" />
    <rect x="63" y="42" width="3.5" height="3.5" rx="1.75" />
    <rect x="10.5" y="45.5" width="3.5" height="3.5" rx="1.75" />
    <rect x="14" y="45.5" width="3.5" height="3.5" rx="1.75" />
    <rect x="17.5" y="45.5" width="3.5" height="3.5" rx="1.75" />
    <rect x="21" y="45.5" width="3.5" height="3.5" rx="1.75" />
    <rect x="56" y="45.5" width="3.5" height="3.5" rx="1.75" />
    <rect x="59.5" y="45.5" width="3.5" height="3.5" rx="1.75" />
    <rect x="63" y="45.5" width="3.5" height="3.5" rx="1.75" />
    <rect x="66.5" y="45.5" width="3.5" height="3.5" rx="1.75" />
    <rect x="3.5" y="49" width="3.5" height="3.5" rx="1.75" />
    <rect x="7" y="49" width="3.5" height="3.5" rx="1.75" />
    <rect x="10.5" y="49" width="3.5" height="3.5" rx="1.75" />
    <rect x="14" y="49" width="3.5" height="3.5" rx="1.75" />
    <rect x="63" y="49" width="3.5" height="3.5" rx="1.75" />
    <rect x="66.5" y="49" width="3.5" height="3.5" rx="1.75" />
    <rect x="70" y="49" width="3.5" height="3.5" rx="1.75" />
    <rect x="73.5" y="49" width="3.5" height="3.5" rx="1.75" />
    <rect x="3.5" y="52.5" width="3.5" height="3.5" rx="1.75" />
    <rect x="7" y="52.5" width="3.5" height="3.5" rx="1.75" />
    <rect x="10.5" y="52.5" width="3.5" height="3.5" rx="1.75" />
    <rect x="31.5" y="52.5" width="3.5" height="3.5" rx="1.75" />
    <rect x="45.5" y="52.5" width="3.5" height="3.5" rx="1.75" />
    <rect x="49" y="52.5" width="3.5" height="3.5" rx="1.75" />
    <rect x="66.5" y="52.5" width="3.5" height="3.5" rx="1.75" />
    <rect x="70" y="52.5" width="3.5" height="3.5" rx="1.75" />
    <rect x="73.5" y="52.5" width="3.5" height="3.5" rx="1.75" />
    <rect x="77" y="52.5" width="3.5" height="3.5" rx="1.75" />
    <rect x="0" y="56" width="3.5" height="3.5" rx="1.75" />
    <rect x="3.5" y="56" width="3.5" height="3.5" rx="1.75" />
    <rect x="7" y="56" width="3.5" height="3.5" rx="1.75" />
    <rect x="24.5" y="56" width="3.5" height="3.5" rx="1.75" />
    <rect x="28" y="56" width="3.5" height="3.5" rx="1.75" />
    <rect x="31.5" y="56" width="3.5" height="3.5" rx="1.75" />
    <rect x="45.5" y="56" width="3.5" height="3.5" rx="1.75" />
    <rect x="49" y="56" width="3.5" height="3.5" rx="1.75" />
    <rect x="52.5" y="56" width="3.5" height="3.5" rx="1.75" />
    <rect x="73.5" y="56" width="3.5" height="3.5" rx="1.75" />
    <rect x="77" y="56" width="3.5" height="3.5" rx="1.75" />
    <rect x="3.5" y="59.5" width="3.5" height="3.5" rx="1.75" />
    <rect x="7" y="59.5" width="3.5" height="3.5" rx="1.75" />
    <rect x="17.5" y="59.5" width="3.5" height="3.5" rx="1.75" />
    <rect x="21" y="59.5" width="3.5" height="3.5" rx="1.75" />
    <rect x="24.5" y="59.5" width="3.5" height="3.5" rx="1.75" />
    <rect x="28" y="59.5" width="3.5" height="3.5" rx="1.75" />
    <rect x="31.5" y="59.5" width="3.5" height="3.5" rx="1.75" />
    <rect x="45.5" y="59.5" width="3.5" height="3.5" rx="1.75" />
    <rect x="49" y="59.5" width="3.5" height="3.5" rx="1.75" />
    <rect x="52.5" y="59.5" width="3.5" height="3.5" rx="1.75" />
    <rect x="56" y="59.5" width="3.5" height="3.5" rx="1.75" />
    <rect x="59.5" y="59.5" width="3.5" height="3.5" rx="1.75" />
    <rect x="70" y="59.5" width="3.5" height="3.5" rx="1.75" />
    <rect x="73.5" y="59.5" width="3.5" height="3.5" rx="1.75" />
    <rect x="3.5" y="63" width="3.5" height="3.5" rx="1.75" />
    <rect x="7" y="63" width="3.5" height="3.5" rx="1.75" />
    <rect x="10.5" y="63" width="3.5" height="3.5" rx="1.75" />
    <rect x="14" y="63" width="3.5" height="3.5" rx="1.75" />
    <rect x="17.5" y="63" width="3.5" height="3.5" rx="1.75" />
    <rect x="21" y="63" width="3.5" height="3.5" rx="1.75" />
    <rect x="24.5" y="63" width="3.5" height="3.5" rx="1.75" />
    <rect x="28" y="63" width="3.5" height="3.5" rx="1.75" />
    <rect x="31.5" y="63" width="3.5" height="3.5" rx="1.75" />
    <rect x="45.5" y="63" width="3.5" height="3.5" rx="1.75" />
    <rect x="49" y="63" width="3.5" height="3.5" rx="1.75" />
    <rect x="52.5" y="63" width="3.5" height="3.5" rx="1.75" />
    <rect x="56" y="63" width="3.5" height="3.5" rx="1.75" />
    <rect x="59.5" y="63" width="3.5" height="3.5" rx="1.75" />
    <rect x="63" y="63" width="3.5" height="3.5" rx="1.75" />
    <rect x="66.5" y="63" width="3.5" height="3.5" rx="1.75" />
    <rect x="70" y="63" width="3.5" height="3.5" rx="1.75" />
    <rect x="73.5" y="63" width="3.5" height="3.5" rx="1.75" />
    <rect x="7" y="66.5" width="3.5" height="3.5" rx="1.75" />
    <rect x="10.5" y="66.5" width="3.5" height="3.5" rx="1.75" />
    <rect x="14" y="66.5" width="3.5" height="3.5" rx="1.75" />
    <rect x="17.5" y="66.5" width="3.5" height="3.5" rx="1.75" />
    <rect x="28" y="66.5" width="3.5" height="3.5" rx="1.75" />
    <rect x="31.5" y="66.5" width="3.5" height="3.5" rx="1.75" />
    <rect x="45.5" y="66.5" width="3.5" height="3.5" rx="1.75" />
    <rect x="49" y="66.5" width="3.5" height="3.5" rx="1.75" />
    <rect x="59.5" y="66.5" width="3.5" height="3.5" rx="1.75" />
    <rect x="63" y="66.5" width="3.5" height="3.5" rx="1.75" />
    <rect x="66.5" y="66.5" width="3.5" height="3.5" rx="1.75" />
    <rect x="70" y="66.5" width="3.5" height="3.5" rx="1.75" />
    <rect x="28" y="70" width="3.5" height="3.5" rx="1.75" />
    <rect x="31.5" y="70" width="3.5" height="3.5" rx="1.75" />
    <rect x="45.5" y="70" width="3.5" height="3.5" rx="1.75" />
    <rect x="49" y="70" width="3.5" height="3.5" rx="1.75" />
    <rect x="28" y="73.5" width="3.5" height="3.5" rx="1.75" />
    <rect x="31.5" y="73.5" width="3.5" height="3.5" rx="1.75" />
    <rect x="45.5" y="73.5" width="3.5" height="3.5" rx="1.75" />
    <rect x="49" y="73.5" width="3.5" height="3.5" rx="1.75" />
    <rect x="28" y="77" width="3.5" height="3.5" rx="1.75" />
    <rect x="31.5" y="77" width="3.5" height="3.5" rx="1.75" />
    <rect x="35" y="77" width="3.5" height="3.5" rx="1.75" />
    <rect x="38.5" y="77" width="3.5" height="3.5" rx="1.75" />
    <rect x="42" y="77" width="3.5" height="3.5" rx="1.75" />
    <rect x="45.5" y="77" width="3.5" height="3.5" rx="1.75" />
    <rect x="49" y="77" width="3.5" height="3.5" rx="1.75" />
    <rect x="31.5" y="80.5" width="3.5" height="3.5" rx="1.75" />
    <rect x="35" y="80.5" width="3.5" height="3.5" rx="1.75" />
    <rect x="38.5" y="80.5" width="3.5" height="3.5" rx="1.75" />
    <rect x="42" y="80.5" width="3.5" height="3.5" rx="1.75" />
    <rect x="45.5" y="80.5" width="3.5" height="3.5" rx="1.75" />
  </g>
</svg>
