<svg preserveAspectRatio="none" width="100%" height="100%" overflow="visible" style="display: block;" viewBox="0 0 0.189453 0.945312" fill="none" xmlns="http://www.w3.org/2000/svg">
<path id="Union" d="M0.0947266 0.756836C0.146716 0.756924 0.189193 0.798637 0.189453 0.850586C0.189453 0.902757 0.146877 0.945224 0.0947266 0.945312C0.0425007 0.945312 0 0.902812 0 0.850586C0.000260788 0.798583 0.0426622 0.756836 0.0947266 0.756836ZM0.0947266 0.37793C0.146824 0.378017 0.189367 0.420558 0.189453 0.472656C0.189453 0.524828 0.146877 0.567295 0.0947266 0.567383C0.0425007 0.567383 0 0.524882 0 0.472656C8.66708e-05 0.420504 0.0425542 0.37793 0.0947266 0.37793ZM0.0947266 0C0.146877 8.80927e-05 0.189453 0.0425551 0.189453 0.0947266C0.189365 0.146823 0.146823 0.189365 0.0947266 0.189453C0.0425551 0.189453 8.80927e-05 0.146877 0 0.0947266C0 0.0425007 0.0425007 0 0.0947266 0Z" fill="var(--fill-0, #A5A7AD)"/>
</svg>
