<svg preserveAspectRatio="none" width="100%" height="100%" overflow="visible" style="display: block;" viewBox="0 0 1.65486 1.65486" fill="none" xmlns="http://www.w3.org/2000/svg">
<path id="&#226;&#134;&#179; Icon Color" fill-rule="evenodd" clip-rule="evenodd" d="M0.685584 0C0.306947 0 0 0.306947 0 0.685584C0 1.06422 0.306947 1.37117 0.685584 1.37117C0.844229 1.37117 0.990287 1.31728 1.10646 1.22682L1.50957 1.62993C1.54281 1.66317 1.59669 1.66317 1.62993 1.62993C1.66317 1.5967 1.66317 1.54281 1.62993 1.50957L1.22682 1.10646C1.31728 0.99029 1.37117 0.84423 1.37117 0.685584C1.37117 0.306947 1.06422 0 0.685584 0ZM0.685584 0.170214C0.400953 0.170214 0.170214 0.400953 0.170214 0.685584C0.170214 0.970216 0.400953 1.20095 0.685584 1.20095C0.970216 1.20095 1.20095 0.970216 1.20095 0.685584C1.20095 0.400953 0.970216 0.170214 0.685584 0.170214Z" fill="var(--fill-0, #9C9DA2)"/>
</svg>
