<svg preserveAspectRatio="none" width="100%" height="100%" overflow="visible" style="display: block;" viewBox="0 0 1.13476 1.32389" fill="none" xmlns="http://www.w3.org/2000/svg">
<g id="&#226;&#134;&#179; Icon Color">
<path d="M0 0.151301C0 0.098341 4.22731e-09 0.0718607 0.0103068 0.0516325C0.0193729 0.0338393 0.0338392 0.0193729 0.0516325 0.0103068C0.0718607 0 0.098341 0 0.151301 0H0.226952C0.279912 0 0.306393 0 0.326621 0.0103068C0.344414 0.0193729 0.358881 0.0338393 0.367947 0.0516325C0.378253 0.0718607 0.378253 0.0983409 0.378253 0.151301V1.17259C0.378253 1.22555 0.378253 1.25203 0.367947 1.27225C0.358881 1.29005 0.344414 1.30451 0.326621 1.31358C0.306393 1.32389 0.279912 1.32389 0.226952 1.32389H0.151301C0.098341 1.32389 0.0718607 1.32389 0.0516325 1.31358C0.0338392 1.30451 0.0193729 1.29005 0.0103068 1.27225C4.22731e-09 1.25203 0 1.22555 0 1.17259V0.151301Z" fill="var(--fill-0, white)"/>
<path d="M0.756507 0.151301C0.756507 0.098341 0.756507 0.0718607 0.766814 0.0516325C0.77588 0.0338393 0.790346 0.0193729 0.808139 0.0103068C0.828368 0 0.854848 0 0.907808 0H0.983459C1.03642 0 1.0629 0 1.08313 0.0103068C1.10092 0.0193729 1.11539 0.0338393 1.12445 0.0516325C1.13476 0.0718607 1.13476 0.0983409 1.13476 0.151301V1.17259C1.13476 1.22555 1.13476 1.25203 1.12445 1.27225C1.11539 1.29005 1.10092 1.30451 1.08313 1.31358C1.0629 1.32389 1.03642 1.32389 0.983459 1.32389H0.907808C0.854848 1.32389 0.828368 1.32389 0.808139 1.31358C0.790346 1.30451 0.77588 1.29005 0.766814 1.27225C0.756507 1.25203 0.756507 1.22555 0.756507 1.17259V0.151301Z" fill="var(--fill-0, white)"/>
</g>
</svg>
