<svg preserveAspectRatio="none" width="100%" height="100%" overflow="visible" style="display: block;" viewBox="0 0 2.64777 2.64777" fill="none" xmlns="http://www.w3.org/2000/svg">
<path id="Vector" d="M1.72213 1.32389C1.72213 1.54349 1.54349 1.72213 1.32389 1.72213C1.10429 1.72213 0.925645 1.54349 0.925645 1.32389C0.925645 1.10429 1.10429 0.925645 1.32389 0.925645C1.54349 0.925645 1.72213 1.10429 1.72213 1.32389ZM1.32389 0C0.593929 0 0 0.593929 0 1.32389C0 2.05385 0.593929 2.64777 1.32389 2.64777C1.59131 2.64777 1.84922 2.56818 2.06965 2.4175L2.07346 2.41485L1.89506 2.2075L1.89208 2.20948C1.72238 2.31862 1.52586 2.37638 1.32389 2.37638C0.743528 2.37638 0.271397 1.90425 0.271397 1.32389C0.271397 0.743528 0.743528 0.271397 1.32389 0.271397C1.90425 0.271397 2.37638 0.743528 2.37638 1.32389C2.37638 1.3991 2.36802 1.47522 2.35155 1.55011C2.31829 1.68671 2.22264 1.72858 2.15082 1.72304C2.07859 1.71716 1.99411 1.6657 1.99353 1.53976V1.44378V1.32389C1.99353 0.954605 1.69317 0.654248 1.32389 0.654248C0.954605 0.654248 0.654249 0.954605 0.654249 1.32389C0.654249 1.69317 0.954605 1.99353 1.32389 1.99353C1.50327 1.99353 1.67149 1.92336 1.79834 1.79585C1.87206 1.91062 1.99228 1.9826 2.12906 1.99353C2.14081 1.99452 2.15281 1.99501 2.16472 1.99501C2.26095 1.99501 2.35644 1.96283 2.43339 1.90433C2.51274 1.84409 2.57198 1.75696 2.60475 1.65229C2.60996 1.63541 2.61956 1.59669 2.61964 1.59644L2.61989 1.59504C2.63917 1.51105 2.64777 1.42732 2.64777 1.32389C2.64777 0.593929 2.05385 0 1.32389 0" fill="var(--fill-0, #0077FF)"/>
</svg>
