<svg preserveAspectRatio="none" width="100%" height="100%" overflow="visible" style="display: block;" viewBox="0 0 0.729489 1.08072" fill="none" xmlns="http://www.w3.org/2000/svg">
<g id="&#226;&#134;&#179; Color Foreground">
<path fill-rule="evenodd" clip-rule="evenodd" d="M0.554107 0.456526C0.505971 0.504541 0.438732 0.535027 0.364617 0.535027C0.291266 0.535027 0.223263 0.504541 0.175126 0.456526C0.126989 0.40851 0.0964265 0.342204 0.0964265 0.267513C0.0964265 0.192823 0.126989 0.125754 0.175126 0.0785011C0.223263 0.0304858 0.290501 0 0.364617 0C0.438732 0 0.505971 0.0304858 0.554107 0.0785011C0.602244 0.126516 0.632807 0.193585 0.632807 0.267513C0.632807 0.341442 0.602244 0.40851 0.554107 0.456526ZM0.365381 0.144808C0.331761 0.144808 0.301199 0.158526 0.27904 0.180629C0.257646 0.202731 0.243129 0.233217 0.243129 0.266751C0.243129 0.300286 0.256882 0.330772 0.27904 0.352874C0.301199 0.374976 0.330997 0.388695 0.365381 0.388695C0.399 0.388695 0.429563 0.374976 0.451721 0.352874C0.473879 0.330772 0.487633 0.301048 0.487633 0.266751C0.487633 0.233217 0.473879 0.202731 0.451721 0.180629C0.429563 0.158526 0.399764 0.144808 0.365381 0.144808Z" fill="white"/>
<path d="M0.648089 0.535787L0.726789 0.64325C0.731373 0.648585 0.730609 0.655444 0.720676 0.660017C0.654202 0.714892 0.57703 0.74995 0.496803 0.769004L0.663371 1.06167C0.667955 1.07081 0.662607 1.08072 0.652674 1.08072H0.489926C0.484577 1.08072 0.479993 1.07691 0.478465 1.07234L0.362325 0.813209L0.246186 1.07234C0.244658 1.07767 0.240073 1.08072 0.234725 1.08072H0.0719769C0.062808 1.08072 0.0566954 1.07005 0.0612799 1.06167L0.227848 0.769004C0.14762 0.74995 0.0704488 0.713367 0.00397425 0.660017C-0.000610194 0.655444 -0.00137427 0.648585 0.0024461 0.64325L0.0811458 0.535787C0.0857302 0.530452 0.0948991 0.52969 0.100248 0.534263C0.175127 0.597521 0.266052 0.638677 0.364618 0.638677C0.463183 0.638677 0.554872 0.597521 0.628987 0.534263C0.634336 0.528928 0.643505 0.52969 0.648089 0.535787Z" fill="white"/>
</g>
</svg>
