<svg preserveAspectRatio="none" width="100%" height="100%" overflow="visible" style="display: block;" viewBox="0 0 1.89127 1.51301" fill="none" xmlns="http://www.w3.org/2000/svg">
<path id="&#226;&#134;&#179; Icon Color" d="M1.7967 0.661944H0.0945634C0.0423375 0.661944 0 0.704281 0 0.756507C0 0.808733 0.0423375 0.85107 0.0945634 0.85107H1.7967C1.84893 0.85107 1.89127 0.808733 1.89127 0.756507C1.89127 0.704281 1.84893 0.661944 1.7967 0.661944ZM1.7967 0H0.0945634C0.0423375 0 0 0.0423375 0 0.0945634C0 0.146789 0.0423375 0.189127 0.0945634 0.189127H1.7967C1.84893 0.189127 1.89127 0.146789 1.89127 0.0945634C1.89127 0.0423375 1.84893 0 1.7967 0ZM0.0945634 1.51301H1.7967C1.84893 1.51301 1.89127 1.47068 1.89127 1.41845C1.89127 1.36622 1.84893 1.32389 1.7967 1.32389H0.0945634C0.0423375 1.32389 0 1.36622 0 1.41845C0 1.47068 0.0423375 1.51301 0.0945634 1.51301Z" fill="var(--fill-0, #9C9DA2)"/>
</svg>
