<svg preserveAspectRatio="none" width="100%" height="100%" overflow="visible" style="display: block;" viewBox="0 0 1.51301 1.51301" fill="none" xmlns="http://www.w3.org/2000/svg">
<g id="square_grid_3x3_16" clip-path="url(#clip0_306_18999)">
<path id="Source" d="M0.325514 1.08918C0.375954 1.09717 0.415985 1.13646 0.424147 1.18684C0.425602 1.19603 0.425124 1.20785 0.425124 1.22981C0.425124 1.2515 0.425593 1.26267 0.424147 1.2718C0.416039 1.32225 0.376004 1.36146 0.325514 1.36946C0.316391 1.37086 0.305226 1.37141 0.283522 1.37141C0.261722 1.37141 0.250684 1.37091 0.24153 1.36946C0.191087 1.3614 0.150969 1.32224 0.142897 1.2718C0.141451 1.26267 0.14192 1.2515 0.14192 1.22981C0.14192 1.20785 0.141442 1.19603 0.142897 1.18684C0.151024 1.13647 0.191125 1.09722 0.24153 1.08918C0.250684 1.08773 0.261722 1.08723 0.283522 1.08723C0.305208 1.08723 0.316396 1.08778 0.325514 1.08918ZM0.799147 1.08918C0.849364 1.09733 0.888657 1.13662 0.896803 1.18684C0.898259 1.19603 0.898756 1.20785 0.898756 1.22981C0.898756 1.2515 0.898249 1.26267 0.896803 1.2718C0.888712 1.32208 0.849402 1.36129 0.799147 1.36946C0.789959 1.37091 0.778141 1.37141 0.756178 1.37141C0.734485 1.37141 0.723318 1.3709 0.714186 1.36946C0.663861 1.36135 0.62464 1.32212 0.61653 1.2718C0.615084 1.26267 0.614577 1.2515 0.614577 1.22981C0.614577 1.20785 0.615075 1.19603 0.61653 1.18684C0.624695 1.13658 0.663899 1.09727 0.714186 1.08918C0.723318 1.08774 0.734485 1.08723 0.756178 1.08723C0.778141 1.08723 0.789959 1.08773 0.799147 1.08918ZM1.2718 1.08918C1.32209 1.09728 1.3613 1.13658 1.36946 1.18684C1.37091 1.19603 1.37141 1.20785 1.37141 1.22981C1.37141 1.2515 1.37091 1.26267 1.36946 1.2718C1.36135 1.32212 1.32213 1.36135 1.2718 1.36946C1.26267 1.3709 1.2515 1.37141 1.22981 1.37141C1.20785 1.37141 1.19603 1.37091 1.18684 1.36946C1.13658 1.36129 1.09728 1.32208 1.08919 1.2718C1.08774 1.26267 1.08723 1.2515 1.08723 1.22981C1.08723 1.20785 1.08773 1.19603 1.08919 1.18684C1.09733 1.13662 1.13662 1.09733 1.18684 1.08918C1.19603 1.08773 1.20785 1.08723 1.22981 1.08723C1.2515 1.08723 1.26267 1.08774 1.2718 1.08918ZM0.325514 0.616527C0.376007 0.624524 0.416042 0.663728 0.424147 0.714183C0.425593 0.723315 0.425124 0.734482 0.425124 0.756175C0.425124 0.778138 0.425602 0.789956 0.424147 0.799144C0.415983 0.849521 0.375952 0.888812 0.325514 0.8968C0.316396 0.898201 0.305207 0.898753 0.283522 0.898753C0.261722 0.898753 0.250684 0.89825 0.24153 0.8968C0.191127 0.888762 0.151027 0.849515 0.142897 0.799144C0.141442 0.789956 0.14192 0.778138 0.14192 0.756175C0.14192 0.734482 0.141451 0.723315 0.142897 0.714183C0.150966 0.663743 0.191085 0.624584 0.24153 0.616527C0.250684 0.615077 0.261722 0.614574 0.283522 0.614574C0.305227 0.614574 0.316391 0.615122 0.325514 0.616527ZM0.799147 0.616527C0.849404 0.624695 0.888715 0.663898 0.896803 0.714183C0.89825 0.723315 0.898756 0.734482 0.898756 0.756175C0.898756 0.778138 0.898259 0.789956 0.896803 0.799144C0.888654 0.849359 0.849362 0.888651 0.799147 0.8968C0.789959 0.898256 0.778141 0.898753 0.756178 0.898753C0.734485 0.898753 0.723318 0.898247 0.714186 0.8968C0.663901 0.888712 0.624698 0.849401 0.61653 0.799144C0.615075 0.789956 0.614577 0.778138 0.614577 0.756175C0.614577 0.734482 0.615083 0.723315 0.61653 0.714183C0.624637 0.663856 0.663859 0.624634 0.714186 0.616527C0.723318 0.615081 0.734485 0.614574 0.756178 0.614574C0.778141 0.614574 0.789959 0.615072 0.799147 0.616527ZM1.2718 0.616527C1.32213 0.624637 1.36135 0.663858 1.36946 0.714183C1.37091 0.723315 1.37141 0.734482 1.37141 0.756175C1.37141 0.778138 1.37091 0.789956 1.36946 0.799144C1.36129 0.849399 1.32208 0.888709 1.2718 0.8968C1.26267 0.898247 1.2515 0.898753 1.22981 0.898753C1.20785 0.898753 1.19603 0.898256 1.18684 0.8968C1.13662 0.888654 1.09734 0.849361 1.08919 0.799144C1.08773 0.789956 1.08723 0.778138 1.08723 0.756175C1.08723 0.734482 1.08774 0.723315 1.08919 0.714183C1.09728 0.663896 1.13658 0.624692 1.18684 0.616527C1.19603 0.615072 1.20785 0.614574 1.22981 0.614574C1.2515 0.614574 1.26267 0.615081 1.2718 0.616527ZM0.325514 0.142894C0.376059 0.1509 0.416099 0.190997 0.424147 0.241527C0.425597 0.250681 0.425124 0.261719 0.425124 0.283519C0.425124 0.305185 0.425544 0.316398 0.424147 0.325511C0.416136 0.37609 0.376093 0.416133 0.325514 0.424144C0.3164 0.425541 0.305188 0.425121 0.283522 0.425121C0.261722 0.425121 0.250684 0.425594 0.24153 0.424144C0.191 0.416096 0.150902 0.376056 0.142897 0.325511C0.141511 0.316412 0.14192 0.305128 0.14192 0.283519C0.14192 0.261719 0.141447 0.250681 0.142897 0.241527C0.150916 0.19097 0.190973 0.150913 0.24153 0.142894C0.250684 0.141444 0.261722 0.141918 0.283522 0.141918C0.305131 0.141918 0.316415 0.141508 0.325514 0.142894ZM0.799147 0.142894C0.849518 0.151024 0.888764 0.191124 0.896803 0.241527C0.898253 0.250681 0.898756 0.261719 0.898756 0.283519C0.898756 0.305204 0.898204 0.316393 0.896803 0.325511C0.888815 0.375949 0.849524 0.41598 0.799147 0.424144C0.789959 0.425599 0.778141 0.425121 0.756178 0.425121C0.734485 0.425121 0.723318 0.42559 0.714186 0.424144C0.663731 0.416039 0.624527 0.376004 0.61653 0.325511C0.615125 0.316388 0.614577 0.305224 0.614577 0.283519C0.614577 0.261719 0.61508 0.250681 0.61653 0.241527C0.624587 0.191082 0.663746 0.150963 0.714186 0.142894C0.723318 0.141448 0.734485 0.141918 0.756178 0.141918C0.778141 0.141918 0.789959 0.141439 0.799147 0.142894ZM1.2718 0.142894C1.32224 0.150966 1.3614 0.191084 1.36946 0.241527C1.37091 0.250681 1.37141 0.261719 1.37141 0.283519C1.37141 0.305223 1.37086 0.316388 1.36946 0.325511C1.36146 0.376001 1.32225 0.416036 1.2718 0.424144C1.26267 0.42559 1.2515 0.425121 1.22981 0.425121C1.20785 0.425121 1.19603 0.425599 1.18684 0.424144C1.13646 0.415982 1.09717 0.375951 1.08919 0.325511C1.08779 0.316393 1.08723 0.305205 1.08723 0.283519C1.08723 0.261719 1.08774 0.250681 1.08919 0.241527C1.09723 0.191123 1.13647 0.151021 1.18684 0.142894C1.19603 0.141439 1.20785 0.141918 1.22981 0.141918C1.2515 0.141918 1.26267 0.141448 1.2718 0.142894Z" fill="var(--fill-0, #A5A7AD)"/>
<path id="&#226;&#134;&#179; Icon Color" fill-rule="evenodd" clip-rule="evenodd" d="M0.141845 0.28369C0.141845 0.261728 0.141845 0.250746 0.1433 0.241558C0.151311 0.190979 0.190979 0.151311 0.241558 0.1433C0.250746 0.141845 0.261728 0.141845 0.28369 0.141845C0.305653 0.141845 0.316634 0.141845 0.325822 0.1433C0.376401 0.151311 0.416069 0.190979 0.42408 0.241558C0.425535 0.250746 0.425535 0.261728 0.425535 0.28369C0.425535 0.305653 0.425535 0.316634 0.42408 0.325822C0.416069 0.376401 0.376401 0.416069 0.325822 0.42408C0.316634 0.425535 0.305653 0.425535 0.28369 0.425535C0.261728 0.425535 0.250746 0.425535 0.241558 0.42408C0.190979 0.416069 0.151311 0.376401 0.1433 0.325822C0.141845 0.316634 0.141845 0.305653 0.141845 0.28369ZM0.141845 0.756507C0.141845 0.734544 0.141845 0.723563 0.1433 0.714375C0.151311 0.663796 0.190979 0.624128 0.241558 0.616117C0.250746 0.614662 0.261728 0.614662 0.28369 0.614662C0.305653 0.614662 0.316634 0.614662 0.325822 0.616117C0.376401 0.624128 0.416069 0.663796 0.42408 0.714375C0.425535 0.723563 0.425535 0.734544 0.425535 0.756507C0.425535 0.778469 0.425535 0.789451 0.42408 0.798639C0.416069 0.849218 0.376401 0.888886 0.325822 0.896897C0.316634 0.898352 0.305653 0.898352 0.28369 0.898352C0.261728 0.898352 0.250746 0.898352 0.241558 0.896897C0.190979 0.888886 0.151311 0.849218 0.1433 0.798639C0.141845 0.789451 0.141845 0.778469 0.141845 0.756507ZM0.1433 1.18719C0.141845 1.19638 0.141845 1.20736 0.141845 1.22932C0.141845 1.25129 0.141845 1.26227 0.1433 1.27146C0.151311 1.32203 0.190979 1.3617 0.241558 1.36971C0.250746 1.37117 0.261728 1.37117 0.28369 1.37117C0.305653 1.37117 0.316634 1.37117 0.325822 1.36971C0.376401 1.3617 0.416069 1.32203 0.42408 1.27146C0.425535 1.26227 0.425535 1.25129 0.425535 1.22932C0.425535 1.20736 0.425535 1.19638 0.42408 1.18719C0.416069 1.13661 0.376401 1.09694 0.325822 1.08893C0.316634 1.08748 0.305653 1.08748 0.28369 1.08748C0.261728 1.08748 0.250746 1.08748 0.241558 1.08893C0.190979 1.09694 0.151311 1.13661 0.1433 1.18719ZM0.614662 0.28369C0.614662 0.261728 0.614662 0.250746 0.616117 0.241558C0.624128 0.190979 0.663796 0.151311 0.714375 0.1433C0.723563 0.141845 0.734544 0.141845 0.756507 0.141845C0.778469 0.141845 0.789451 0.141845 0.798639 0.1433C0.849218 0.151311 0.888886 0.190979 0.896897 0.241558C0.898352 0.250746 0.898352 0.261728 0.898352 0.28369C0.898352 0.305653 0.898352 0.316634 0.896897 0.325822C0.888886 0.376401 0.849218 0.416069 0.798639 0.42408C0.789451 0.425535 0.778469 0.425535 0.756507 0.425535C0.734544 0.425535 0.723563 0.425535 0.714375 0.42408C0.663796 0.416069 0.624128 0.376401 0.616117 0.325822C0.614662 0.316634 0.614662 0.305653 0.614662 0.28369ZM0.616117 0.714375C0.614662 0.723563 0.614662 0.734544 0.614662 0.756507C0.614662 0.778469 0.614662 0.789451 0.616117 0.798639C0.624128 0.849218 0.663796 0.888886 0.714375 0.896897C0.723563 0.898352 0.734544 0.898352 0.756507 0.898352C0.778469 0.898352 0.789451 0.898352 0.798639 0.896897C0.849218 0.888886 0.888886 0.849218 0.896897 0.798639C0.898352 0.789451 0.898352 0.778469 0.898352 0.756507C0.898352 0.734544 0.898352 0.723563 0.896897 0.714375C0.888886 0.663796 0.849218 0.624128 0.798639 0.616117C0.789451 0.614662 0.778469 0.614662 0.756507 0.614662C0.734544 0.614662 0.723563 0.614662 0.714375 0.616117C0.663796 0.624128 0.624128 0.663796 0.616117 0.714375ZM0.614662 1.22932C0.614662 1.20736 0.614662 1.19638 0.616117 1.18719C0.624128 1.13661 0.663796 1.09694 0.714375 1.08893C0.723563 1.08748 0.734544 1.08748 0.756507 1.08748C0.778469 1.08748 0.789451 1.08748 0.798639 1.08893C0.849218 1.09694 0.888886 1.13661 0.896897 1.18719C0.898352 1.19638 0.898352 1.20736 0.898352 1.22932C0.898352 1.25129 0.898352 1.26227 0.896897 1.27146C0.888886 1.32203 0.849218 1.3617 0.798639 1.36971C0.789451 1.37117 0.778469 1.37117 0.756507 1.37117C0.734544 1.37117 0.723563 1.37117 0.714375 1.36971C0.663796 1.3617 0.624128 1.32203 0.616117 1.27146C0.614662 1.26227 0.614662 1.25129 0.614662 1.22932ZM1.08893 0.241558C1.08748 0.250746 1.08748 0.261728 1.08748 0.28369C1.08748 0.305653 1.08748 0.316634 1.08893 0.325822C1.09694 0.376401 1.13661 0.416069 1.18719 0.42408C1.19638 0.425535 1.20736 0.425535 1.22932 0.425535C1.25129 0.425535 1.26227 0.425535 1.27146 0.42408C1.32203 0.416069 1.3617 0.376401 1.36971 0.325822C1.37117 0.316634 1.37117 0.305653 1.37117 0.28369C1.37117 0.261728 1.37117 0.250746 1.36971 0.241558C1.3617 0.190979 1.32203 0.151311 1.27146 0.1433C1.26227 0.141845 1.25129 0.141845 1.22932 0.141845C1.20736 0.141845 1.19638 0.141845 1.18719 0.1433C1.13661 0.151311 1.09694 0.190979 1.08893 0.241558ZM1.08748 0.756507C1.08748 0.734544 1.08748 0.723563 1.08893 0.714375C1.09694 0.663796 1.13661 0.624128 1.18719 0.616117C1.19638 0.614662 1.20736 0.614662 1.22932 0.614662C1.25129 0.614662 1.26227 0.614662 1.27146 0.616117C1.32203 0.624128 1.3617 0.663796 1.36971 0.714375C1.37117 0.723563 1.37117 0.734544 1.37117 0.756507C1.37117 0.778469 1.37117 0.789451 1.36971 0.798639C1.3617 0.849218 1.32203 0.888886 1.27146 0.896897C1.26227 0.898352 1.25129 0.898352 1.22932 0.898352C1.20736 0.898352 1.19638 0.898352 1.18719 0.896897C1.13661 0.888886 1.09694 0.849218 1.08893 0.798639C1.08748 0.789451 1.08748 0.778469 1.08748 0.756507ZM1.08893 1.18719C1.08748 1.19638 1.08748 1.20736 1.08748 1.22932C1.08748 1.25129 1.08748 1.26227 1.08893 1.27146C1.09694 1.32203 1.13661 1.3617 1.18719 1.36971C1.19638 1.37117 1.20736 1.37117 1.22932 1.37117C1.25129 1.37117 1.26227 1.37117 1.27146 1.36971C1.32203 1.3617 1.3617 1.32203 1.36971 1.27146C1.37117 1.26227 1.37117 1.25129 1.37117 1.22932C1.37117 1.20736 1.37117 1.19638 1.36971 1.18719C1.3617 1.13661 1.32203 1.09694 1.27146 1.08893C1.26227 1.08748 1.25129 1.08748 1.22932 1.08748C1.20736 1.08748 1.19638 1.08748 1.18719 1.08893C1.13661 1.09694 1.09694 1.13661 1.08893 1.18719Z" fill="var(--fill-0, #A5A7AD)"/>
</g>
<defs>
<clipPath id="clip0_306_18999">
<rect width="1.51301" height="1.51301" fill="white"/>
</clipPath>
</defs>
</svg>
