<svg preserveAspectRatio="none" width="100%" height="100%" overflow="visible" style="display: block;" viewBox="0 0 1.70214 1.13476" fill="none" xmlns="http://www.w3.org/2000/svg">
<g id="&#226;&#134;&#179; Icon Color">
<path fill-rule="evenodd" clip-rule="evenodd" d="M1.13476 0.56738C1.13476 0.724058 1.00775 0.85107 0.85107 0.85107C0.694393 0.85107 0.56738 0.724058 0.56738 0.56738C0.56738 0.410702 0.694393 0.28369 0.85107 0.28369C1.00775 0.28369 1.13476 0.410702 1.13476 0.56738ZM0.992915 0.56738C0.992915 0.645719 0.929409 0.709225 0.85107 0.709225C0.772731 0.709225 0.709225 0.645719 0.709225 0.56738C0.709225 0.489041 0.772731 0.425535 0.85107 0.425535C0.929409 0.425535 0.992915 0.489041 0.992915 0.56738Z" fill="var(--fill-0, #2C2D2E)"/>
<path fill-rule="evenodd" clip-rule="evenodd" d="M1.70214 0.56738C1.70214 0.898352 1.22932 1.13476 0.85107 1.13476C0.472817 1.13476 0 0.898352 0 0.56738C0 0.236408 0.472817 0 0.85107 0C1.22932 0 1.70214 0.236408 1.70214 0.56738ZM1.5603 0.56738C1.5603 0.660307 1.49226 0.764428 1.34484 0.853937C1.20146 0.940985 1.01415 0.992915 0.85107 0.992915C0.687995 0.992915 0.500677 0.940985 0.357305 0.853937C0.209878 0.764428 0.141845 0.660307 0.141845 0.56738C0.141845 0.474454 0.209878 0.370332 0.357305 0.280823C0.500677 0.193775 0.687995 0.141845 0.85107 0.141845C1.01415 0.141845 1.20146 0.193775 1.34484 0.280823C1.49226 0.370332 1.5603 0.474454 1.5603 0.56738Z" fill="var(--fill-0, #2C2D2E)"/>
</g>
</svg>
