<svg preserveAspectRatio="none" width="100%" height="100%" overflow="visible" style="display: block;" viewBox="0 0 12.7223 12.7223" fill="none" xmlns="http://www.w3.org/2000/svg">
<path id="Vector" d="M8.27467 6.36116C8.27467 7.41632 7.41632 8.27467 6.36116 8.27467C5.306 8.27467 4.44764 7.41632 4.44764 6.36116C4.44764 5.306 5.306 4.44764 6.36116 4.44764C7.41632 4.44764 8.27467 5.306 8.27467 6.36116ZM6.36116 0C2.85378 0 0 2.85377 0 6.36116C0 9.86854 2.85378 12.7223 6.36116 12.7223C7.64611 12.7223 8.88535 12.3399 9.94448 11.6159L9.96277 11.6032L9.1056 10.6068L9.09129 10.6164C8.27587 11.1408 7.33163 11.4183 6.36116 11.4183C3.57259 11.4183 1.30404 9.14973 1.30404 6.36116C1.30404 3.57259 3.57259 1.30404 6.36116 1.30404C9.14973 1.30404 11.4183 3.57259 11.4183 6.36116C11.4183 6.72255 11.3781 7.08832 11.299 7.44812C11.1392 8.10451 10.6796 8.30568 10.3345 8.27905C9.98742 8.25082 9.5815 8.00353 9.57871 7.39842V6.93724V6.36116C9.57871 4.58679 8.13552 3.1436 6.36116 3.1436C4.58679 3.1436 3.14361 4.58679 3.14361 6.36116C3.14361 8.13552 4.58679 9.57871 6.36116 9.57871C7.2231 9.57871 8.03136 9.24157 8.64084 8.62891C8.99508 9.18034 9.57275 9.52623 10.2299 9.57871C10.2864 9.58348 10.344 9.58587 10.4013 9.58587C10.8637 9.58587 11.3225 9.43121 11.6922 9.15013C12.0735 8.8607 12.3581 8.44205 12.5156 7.93912C12.5406 7.85802 12.5867 7.67195 12.5871 7.67076L12.5883 7.664C12.681 7.26047 12.7223 6.85812 12.7223 6.36116C12.7223 2.85377 9.86854 0 6.36116 0" fill="var(--fill-0, #0077FF)"/>
</svg>
