<svg preserveAspectRatio="none" width="100%" height="100%" overflow="visible" style="display: block;" viewBox="0 0 1.51301 1.51301" fill="none" xmlns="http://www.w3.org/2000/svg">
<path id="Vector" d="M0.902405 0.902405C0.783525 1.02507 0.774879 1.17799 0.764612 1.51301C1.07694 1.51301 1.29255 1.51193 1.40386 1.40386C1.51193 1.29255 1.51301 1.06667 1.51301 0.764612C1.17799 0.77542 1.02507 0.783525 0.902405 0.902405ZM0 0.764612C0 1.06667 0.00108072 1.29255 0.109153 1.40386C0.220468 1.51193 0.436072 1.51301 0.748401 1.51301C0.737594 1.17799 0.729489 1.02507 0.610609 0.902405C0.487947 0.783525 0.335024 0.774879 0 0.764612ZM0.748401 0C0.436613 0 0.220468 0.00108072 0.109153 0.109153C0.00108072 0.220468 0 0.446339 0 0.748401C0.335024 0.737594 0.487947 0.729489 0.610609 0.610609C0.729489 0.487947 0.738135 0.335024 0.748401 0ZM0.902405 0.610609C0.783525 0.487947 0.774879 0.335024 0.764612 0C1.07694 0 1.29255 0.00108072 1.40386 0.109153C1.51193 0.220468 1.51301 0.446339 1.51301 0.748401C1.17799 0.737594 1.02507 0.729489 0.902405 0.610609Z" fill="var(--fill-0, #2C2D2E)"/>
</svg>
