<svg preserveAspectRatio="none" width="100%" height="100%" overflow="visible" style="display: block;" viewBox="0 0 1.11249 4.8208" fill="none" xmlns="http://www.w3.org/2000/svg">
<path id="&#226;&#134;&#179; Icon Color" d="M0.556246 1.11249C0.862182 1.11249 1.11249 0.862182 1.11249 0.556246C1.11249 0.250311 0.862182 0 0.556246 0C0.250311 0 0 0.250311 0 0.556246C0 0.862182 0.250311 1.11249 0.556246 1.11249ZM0.556246 1.85415C0.250311 1.85415 0 2.10447 0 2.4104C0 2.71634 0.250311 2.96665 0.556246 2.96665C0.862182 2.96665 1.11249 2.71634 1.11249 2.4104C1.11249 2.10447 0.862182 1.85415 0.556246 1.85415ZM0.556246 3.70831C0.250311 3.70831 0 3.95862 0 4.26456C0 4.57049 0.250311 4.8208 0.556246 4.8208C0.862182 4.8208 1.11249 4.57049 1.11249 4.26456C1.11249 3.95862 0.862182 3.70831 0.556246 3.70831Z" fill="var(--fill-0, white)"/>
</svg>
