<svg preserveAspectRatio="none" width="100%" height="100%" overflow="visible" style="display: block;" viewBox="0 0 5.93329 5.93328" fill="none" xmlns="http://www.w3.org/2000/svg">
<g id="square_grid_3x3_16" clip-path="url(#clip0_306_18736)">
<path id="Source" d="M1.27793 4.2701C1.47618 4.30158 1.63129 4.45756 1.66269 4.65584C1.66836 4.69183 1.66855 4.73493 1.66855 4.82088C1.66855 4.90692 1.66839 4.94991 1.66269 4.98592C1.63129 5.18422 1.4762 5.34019 1.27793 5.37166C1.24195 5.37736 1.19875 5.37752 1.11289 5.37752C1.02676 5.37752 0.982904 5.37737 0.946871 5.37166C0.748688 5.34013 0.593503 5.18415 0.562106 4.98592C0.556411 4.94992 0.556246 4.9069 0.556246 4.82088C0.556246 4.73495 0.556438 4.69183 0.562106 4.65584C0.593501 4.45762 0.748702 4.30165 0.946871 4.2701C0.982904 4.2644 1.02676 4.26424 1.11289 4.26424C1.19875 4.26424 1.24195 4.2644 1.27793 4.2701ZM3.13144 4.2701C3.32979 4.30152 3.48577 4.4575 3.51718 4.65584C3.52285 4.69182 3.52304 4.73497 3.52304 4.82088C3.52304 4.90688 3.52288 4.94992 3.51718 4.98592C3.48577 5.18427 3.32979 5.34025 3.13144 5.37166C3.0955 5.3773 3.05216 5.37752 2.9664 5.37752C2.88044 5.37752 2.83736 5.37737 2.80136 5.37166C2.60302 5.34025 2.44704 5.18426 2.41562 4.98592C2.40994 4.94994 2.41074 4.90682 2.41074 4.82088C2.41074 4.73503 2.40997 4.69181 2.41562 4.65584C2.44703 4.45751 2.60304 4.30153 2.80136 4.2701C2.83736 4.2644 2.88044 4.26424 2.9664 4.26424C3.05218 4.26424 3.0955 4.26446 3.13144 4.2701ZM4.98593 4.2701C5.18428 4.30152 5.34026 4.4575 5.37168 4.65584C5.37733 4.69181 5.37754 4.73501 5.37754 4.82088C5.37754 4.90684 5.37736 4.94993 5.37168 4.98592C5.34026 5.18427 5.18428 5.34025 4.98593 5.37166C4.94994 5.37735 4.90685 5.37752 4.82089 5.37752C4.73502 5.37752 4.69182 5.37732 4.65586 5.37166C4.45751 5.34025 4.30153 5.18427 4.27011 4.98592C4.26443 4.94993 4.26425 4.90686 4.26425 4.82088C4.26425 4.73499 4.26445 4.69182 4.27011 4.65584C4.30153 4.4575 4.45751 4.30152 4.65586 4.2701C4.69183 4.26444 4.735 4.26424 4.82089 4.26424C4.90687 4.26424 4.94994 4.26441 4.98593 4.2701ZM1.27793 2.41561C1.47617 2.44707 1.63124 2.60311 1.66269 2.80135C1.66839 2.83735 1.66855 2.88043 1.66855 2.96639C1.66855 3.05223 1.66834 3.09547 1.66269 3.13143C1.63129 3.32971 1.47617 3.48568 1.27793 3.51717C1.24195 3.52287 1.19875 3.52303 1.11289 3.52303C1.02676 3.52303 0.982904 3.52288 0.946871 3.51717C0.748713 3.48562 0.5935 3.32964 0.562106 3.13143C0.556461 3.09548 0.556246 3.0522 0.556246 2.96639C0.556246 2.88043 0.556404 2.83735 0.562106 2.80135C0.593535 2.60315 0.748705 2.44713 0.946871 2.41561C0.982904 2.4099 1.02676 2.41073 1.11289 2.41073C1.19875 2.41073 1.24195 2.40991 1.27793 2.41561ZM3.13144 2.41561C3.32977 2.44702 3.48575 2.60304 3.51718 2.80135C3.52289 2.83735 3.52304 2.88043 3.52304 2.96639C3.52304 3.05219 3.52283 3.09548 3.51718 3.13143C3.48577 3.32977 3.32979 3.48576 3.13144 3.51717C3.09549 3.52281 3.0522 3.52303 2.9664 3.52303C2.88044 3.52303 2.83736 3.52287 2.80136 3.51717C2.60305 3.48574 2.44703 3.32975 2.41562 3.13143C2.40999 3.0955 2.41074 3.05213 2.41074 2.96639C2.41074 2.88044 2.40992 2.83735 2.41562 2.80135C2.44704 2.60301 2.60302 2.44702 2.80136 2.41561C2.83736 2.40991 2.88045 2.41073 2.9664 2.41073C3.05214 2.41073 3.09551 2.40998 3.13144 2.41561ZM4.98593 2.41561C5.18428 2.44702 5.34026 2.60301 5.37168 2.80135C5.37738 2.83735 5.37754 2.88043 5.37754 2.96639C5.37754 3.05214 5.37731 3.09549 5.37168 3.13143C5.34026 3.32977 5.18428 3.48576 4.98593 3.51717C4.94993 3.52286 4.90689 3.52303 4.82089 3.52303C4.73498 3.52303 4.69183 3.52284 4.65586 3.51717C4.45751 3.48576 4.30153 3.32977 4.27011 3.13143C4.26448 3.09549 4.26425 3.05217 4.26425 2.96639C4.26425 2.88043 4.26441 2.83735 4.27011 2.80135C4.30154 2.60303 4.45752 2.44702 4.65586 2.41561C4.69182 2.40996 4.73504 2.41073 4.82089 2.41073C4.90683 2.41073 4.94995 2.40993 4.98593 2.41561ZM1.27793 0.562094C1.47601 0.59357 1.63113 0.748804 1.66269 0.94686C1.6684 0.982892 1.66855 1.02675 1.66855 1.11288C1.66855 1.19874 1.66839 1.24194 1.66269 1.27791C1.6312 1.47605 1.47606 1.63118 1.27793 1.66268C1.24195 1.66838 1.19875 1.66854 1.11289 1.66854C1.02676 1.66854 0.982904 1.66839 0.946871 1.66268C0.748815 1.63112 0.593581 1.476 0.562106 1.27791C0.556407 1.24194 0.556246 1.19874 0.556246 1.11288C0.556246 1.02675 0.556399 0.982892 0.562106 0.94686C0.593649 0.748851 0.748862 0.593638 0.946871 0.562094C0.982904 0.556387 1.02676 0.556235 1.11289 0.556235C1.19875 0.556235 1.24195 0.556396 1.27793 0.562094ZM3.13144 0.562094C3.32966 0.593489 3.48563 0.748702 3.51718 0.94686C3.52289 0.982892 3.52304 1.02675 3.52304 1.11288C3.52304 1.19874 3.52288 1.24194 3.51718 1.27791C3.48569 1.47616 3.32972 1.63128 3.13144 1.66268C3.09548 1.66833 3.05224 1.66854 2.9664 1.66854C2.88044 1.66854 2.83736 1.66838 2.80136 1.66268C2.60312 1.63123 2.44708 1.47616 2.41562 1.27791C2.40992 1.24194 2.41074 1.19874 2.41074 1.11288C2.41074 1.02675 2.40991 0.982892 2.41562 0.94686C2.44715 0.748694 2.60316 0.593523 2.80136 0.562094C2.83736 0.556393 2.88044 0.556235 2.9664 0.556235C3.05222 0.556235 3.09549 0.556449 3.13144 0.562094ZM4.98593 0.562094C5.18417 0.593491 5.34014 0.748677 5.37168 0.94686C5.37738 0.982892 5.37754 1.02675 5.37754 1.11288C5.37754 1.19874 5.37737 1.24194 5.37168 1.27791C5.3402 1.47619 5.18423 1.63127 4.98593 1.66268C4.94992 1.66838 4.90693 1.66854 4.82089 1.66854C4.73494 1.66854 4.69184 1.66835 4.65586 1.66268C4.45757 1.63128 4.3016 1.47617 4.27011 1.27791C4.26442 1.24194 4.26425 1.19874 4.26425 1.11288C4.26425 1.02675 4.26441 0.982892 4.27011 0.94686C4.30166 0.748691 4.45763 0.59349 4.65586 0.562094C4.69184 0.556426 4.73496 0.556235 4.82089 0.556235C4.90691 0.556235 4.94993 0.5564 4.98593 0.562094Z" fill="var(--fill-0, #A5A7AD)"/>
<path id="&#226;&#134;&#179; Icon Color" fill-rule="evenodd" clip-rule="evenodd" d="M0.556246 1.11249C0.556246 1.02637 0.556246 0.983304 0.561953 0.947272C0.593368 0.748927 0.748927 0.593368 0.947272 0.561953C0.983304 0.556246 1.02637 0.556246 1.11249 0.556246C1.19862 0.556246 1.24168 0.556246 1.27771 0.561953C1.47606 0.593368 1.63162 0.748927 1.66303 0.947272C1.66874 0.983304 1.66874 1.02637 1.66874 1.11249C1.66874 1.19862 1.66874 1.24168 1.66303 1.27771C1.63162 1.47606 1.47606 1.63162 1.27771 1.66303C1.24168 1.66874 1.19862 1.66874 1.11249 1.66874C1.02637 1.66874 0.983304 1.66874 0.947272 1.66303C0.748927 1.63162 0.593368 1.47606 0.561953 1.27771C0.556246 1.24168 0.556246 1.19862 0.556246 1.11249ZM0.556246 2.96665C0.556246 2.88052 0.556246 2.83746 0.561953 2.80143C0.593368 2.60308 0.748927 2.44752 0.947272 2.41611C0.983304 2.4104 1.02637 2.4104 1.11249 2.4104C1.19862 2.4104 1.24168 2.4104 1.27771 2.41611C1.47606 2.44752 1.63162 2.60308 1.66303 2.80143C1.66874 2.83746 1.66874 2.88052 1.66874 2.96665C1.66874 3.05277 1.66874 3.09584 1.66303 3.13187C1.63162 3.33021 1.47606 3.48577 1.27771 3.51719C1.24168 3.52289 1.19862 3.52289 1.11249 3.52289C1.02637 3.52289 0.983304 3.52289 0.947272 3.51719C0.748927 3.48577 0.593368 3.33021 0.561953 3.13187C0.556246 3.09584 0.556246 3.05277 0.556246 2.96665ZM0.561953 4.65558C0.556246 4.69161 0.556246 4.73468 0.556246 4.8208C0.556246 4.90693 0.556246 4.94999 0.561953 4.98602C0.593368 5.18437 0.748927 5.33993 0.947272 5.37134C0.983304 5.37705 1.02637 5.37705 1.11249 5.37705C1.19862 5.37705 1.24168 5.37705 1.27771 5.37134C1.47606 5.33993 1.63162 5.18437 1.66303 4.98602C1.66874 4.94999 1.66874 4.90693 1.66874 4.8208C1.66874 4.73468 1.66874 4.69161 1.66303 4.65558C1.63162 4.45724 1.47606 4.30168 1.27771 4.27026C1.24168 4.26456 1.19862 4.26456 1.11249 4.26456C1.02637 4.26456 0.983304 4.26456 0.947272 4.27026C0.748927 4.30168 0.593368 4.45724 0.561953 4.65558ZM2.4104 1.11249C2.4104 1.02637 2.4104 0.983304 2.41611 0.947272C2.44752 0.748927 2.60308 0.593368 2.80143 0.561953C2.83746 0.556246 2.88052 0.556246 2.96665 0.556246C3.05277 0.556246 3.09584 0.556246 3.13187 0.561953C3.33021 0.593368 3.48577 0.748927 3.51719 0.947272C3.52289 0.983304 3.52289 1.02637 3.52289 1.11249C3.52289 1.19862 3.52289 1.24168 3.51719 1.27771C3.48577 1.47606 3.33021 1.63162 3.13187 1.66303C3.09584 1.66874 3.05277 1.66874 2.96665 1.66874C2.88052 1.66874 2.83746 1.66874 2.80143 1.66303C2.60308 1.63162 2.44752 1.47606 2.41611 1.27771C2.4104 1.24168 2.4104 1.19862 2.4104 1.11249ZM2.41611 2.80143C2.4104 2.83746 2.4104 2.88052 2.4104 2.96665C2.4104 3.05277 2.4104 3.09584 2.41611 3.13187C2.44752 3.33021 2.60308 3.48577 2.80143 3.51719C2.83746 3.52289 2.88052 3.52289 2.96665 3.52289C3.05277 3.52289 3.09584 3.52289 3.13187 3.51719C3.33021 3.48577 3.48577 3.33021 3.51719 3.13187C3.52289 3.09584 3.52289 3.05277 3.52289 2.96665C3.52289 2.88052 3.52289 2.83746 3.51719 2.80143C3.48577 2.60308 3.33021 2.44752 3.13187 2.41611C3.09584 2.4104 3.05277 2.4104 2.96665 2.4104C2.88052 2.4104 2.83746 2.4104 2.80143 2.41611C2.60308 2.44752 2.44752 2.60308 2.41611 2.80143ZM2.4104 4.8208C2.4104 4.73468 2.4104 4.69161 2.41611 4.65558C2.44752 4.45724 2.60308 4.30168 2.80143 4.27026C2.83746 4.26456 2.88052 4.26456 2.96665 4.26456C3.05277 4.26456 3.09584 4.26456 3.13187 4.27026C3.33021 4.30168 3.48577 4.45724 3.51719 4.65558C3.52289 4.69161 3.52289 4.73468 3.52289 4.8208C3.52289 4.90693 3.52289 4.94999 3.51719 4.98602C3.48577 5.18437 3.33021 5.33993 3.13187 5.37134C3.09584 5.37705 3.05277 5.37705 2.96665 5.37705C2.88052 5.37705 2.83746 5.37705 2.80143 5.37134C2.60308 5.33993 2.44752 5.18437 2.41611 4.98602C2.4104 4.94999 2.4104 4.90693 2.4104 4.8208ZM4.27026 0.947272C4.26456 0.983304 4.26456 1.02637 4.26456 1.11249C4.26456 1.19862 4.26456 1.24168 4.27026 1.27771C4.30168 1.47606 4.45724 1.63162 4.65558 1.66303C4.69161 1.66874 4.73468 1.66874 4.8208 1.66874C4.90693 1.66874 4.94999 1.66874 4.98602 1.66303C5.18437 1.63162 5.33993 1.47606 5.37134 1.27771C5.37705 1.24168 5.37705 1.19862 5.37705 1.11249C5.37705 1.02637 5.37705 0.983304 5.37134 0.947272C5.33993 0.748927 5.18437 0.593368 4.98602 0.561953C4.94999 0.556246 4.90693 0.556246 4.8208 0.556246C4.73468 0.556246 4.69161 0.556246 4.65558 0.561953C4.45724 0.593368 4.30168 0.748927 4.27026 0.947272ZM4.26456 2.96665C4.26456 2.88052 4.26456 2.83746 4.27026 2.80143C4.30168 2.60308 4.45724 2.44752 4.65558 2.41611C4.69161 2.4104 4.73468 2.4104 4.8208 2.4104C4.90693 2.4104 4.94999 2.4104 4.98602 2.41611C5.18437 2.44752 5.33993 2.60308 5.37134 2.80143C5.37705 2.83746 5.37705 2.88052 5.37705 2.96665C5.37705 3.05277 5.37705 3.09584 5.37134 3.13187C5.33993 3.33021 5.18437 3.48577 4.98602 3.51719C4.94999 3.52289 4.90693 3.52289 4.8208 3.52289C4.73468 3.52289 4.69161 3.52289 4.65558 3.51719C4.45724 3.48577 4.30168 3.33021 4.27026 3.13187C4.26456 3.09584 4.26456 3.05277 4.26456 2.96665ZM4.27026 4.65558C4.26456 4.69161 4.26456 4.73468 4.26456 4.8208C4.26456 4.90693 4.26456 4.94999 4.27026 4.98602C4.30168 5.18437 4.45724 5.33993 4.65558 5.37134C4.69161 5.37705 4.73468 5.37705 4.8208 5.37705C4.90693 5.37705 4.94999 5.37705 4.98602 5.37134C5.18437 5.33993 5.33993 5.18437 5.37134 4.98602C5.37705 4.94999 5.37705 4.90693 5.37705 4.8208C5.37705 4.73468 5.37705 4.69161 5.37134 4.65558C5.33993 4.45724 5.18437 4.30168 4.98602 4.27026C4.94999 4.26456 4.90693 4.26456 4.8208 4.26456C4.73468 4.26456 4.69161 4.26456 4.65558 4.27026C4.45724 4.30168 4.30168 4.45724 4.27026 4.65558Z" fill="var(--fill-0, #A5A7AD)"/>
</g>
<defs>
<clipPath id="clip0_306_18736">
<rect width="5.93329" height="5.93328" fill="white"/>
</clipPath>
</defs>
</svg>
