<svg preserveAspectRatio="none" width="100%" height="100%" overflow="visible" style="display: block;" viewBox="0 0 1.51301 1.51301" fill="none" xmlns="http://www.w3.org/2000/svg">
<g id="&#226;&#134;&#179; Icon Color">
<path fill-rule="evenodd" clip-rule="evenodd" d="M0.945631 0.085107C0.945631 0.0381037 0.983735 0 1.03074 0H1.42791C1.47491 0 1.51301 0.0381037 1.51301 0.085107V0.482274C1.51301 0.529277 1.47491 0.567381 1.42791 0.567381C1.3809 0.567381 1.3428 0.529277 1.3428 0.482274V0.290574L0.996357 0.637017C0.963121 0.670253 0.909234 0.670253 0.875998 0.637017C0.842761 0.603781 0.842761 0.549894 0.875997 0.516657L1.22244 0.170214H1.03074C0.983735 0.170214 0.945631 0.13211 0.945631 0.085107Z" fill="white"/>
<path fill-rule="evenodd" clip-rule="evenodd" d="M0.637017 0.875998C0.670253 0.909234 0.670253 0.963121 0.637017 0.996357L0.290574 1.3428H0.482101C0.529104 1.3428 0.567208 1.3809 0.567208 1.42791C0.567208 1.47491 0.529104 1.51301 0.482101 1.51301H0.085107C0.0381037 1.51301 0 1.47491 0 1.42791V1.03074C0 0.983738 0.0381037 0.945634 0.085107 0.945634C0.13211 0.945634 0.170214 0.983738 0.170214 1.03074V1.22244L0.516657 0.875997C0.549894 0.842761 0.603781 0.842761 0.637017 0.875998Z" fill="white"/>
</g>
</svg>
